<svg width="27" height="27" viewBox="0 0 27 27" fill="none" xmlns="http://www.w3.org/2000/svg">
<g clip-path="url(#clip0_206_69)">
<path d="M2.45457 23.932V3.0683H5.52275V1.22741C5.52281 0.549556 6.07224 0.000122877 6.75003 0.000122877H9.20454C9.88233 0.000122877 10.4318 0.549556 10.4318 1.22728V3.0683H19.0227L19.0227 1.22728C19.0227 0.549434 19.5722 0 20.25 0H22.7045C23.3823 0 23.9318 0.549434 23.9318 1.22728V3.0683H27V23.932H2.45457ZM4.29546 22.0911H25.159V7.97744H4.29546V22.0911ZM5.52275 17.7956H9.20454V20.8638H5.52275V17.7956ZM10.4318 17.7956H14.1136V20.8638H10.4318V17.7956ZM15.3409 17.7956H19.0227V20.8638H15.3409V17.7956ZM20.2499 17.7956H23.9318V20.8638H20.2499V17.7956ZM5.52275 13.5001H9.20454V16.5683H5.52275V13.5001ZM10.4318 13.5001H14.1136V16.5683H10.4318V13.5001ZM15.3409 13.5001H19.0227V16.5683H15.3409V13.5001ZM20.2499 13.5001H23.9318V16.5683H20.2499V13.5001ZM10.4318 9.20484H14.1136V12.273H10.4318V9.20484ZM15.3409 9.20484H19.0227V12.273H15.3409V9.20484ZM20.2499 9.20484H23.9318V12.273H20.2499V9.20484ZM21.1704 1.22747C20.662 1.22747 20.2499 1.63959 20.2499 2.14791V3.98887C20.2499 4.4972 20.662 4.90932 21.1704 4.90932H21.784C22.2924 4.90932 22.7045 4.4972 22.7045 3.98887V2.14791C22.7045 1.63959 22.2924 1.22747 21.784 1.22747H21.1704ZM7.67042 1.22747C7.16209 1.22747 6.74997 1.63959 6.74997 2.14791V3.98881C6.74997 4.4972 7.16209 4.90926 7.67042 4.90926H8.28409C8.79242 4.90926 9.20454 4.4972 9.20454 3.98881V2.14791C9.20454 1.63959 8.79242 1.22747 8.28409 1.22747H7.67042ZM11.0454 14.1138V15.9547H13.5V14.1138H11.0454ZM6.13636 14.1138V15.9547H8.59093V14.1138H6.13636ZM15.9546 14.1138V15.9547H18.4091V14.1138H15.9546ZM20.8636 14.1138V15.9547H23.3181V14.1138H20.8636ZM11.0454 9.81833V11.6592H13.5V9.81833H11.0454ZM15.9546 9.81833V11.6592H18.4091V9.81833H15.9546ZM20.8636 9.81833V11.6592H23.3181V9.81833H20.8636ZM20.8636 18.4092V20.2501H23.3181V18.4092H20.8636ZM15.9546 18.4092V20.2501H18.4091V18.4092H15.9546ZM11.0455 18.4092V20.2501H13.5V18.4092H11.0455ZM6.13636 18.4092V20.2501H8.59093V18.4092H6.13636ZM1.84096 4.29552V24.5456H25.7727V25.1592H1.22722V4.29552H1.84096ZM0.613734 5.52269V25.7727H24.5456L24.5455 26.3864H0V5.52269H0.613734Z" fill="#FF8906"/>
</g>
<defs>
<clipPath id="clip0_206_69">
<rect width="27" height="27" fill="white"/>
</clipPath>
</defs>
</svg>
