<svg width="27" height="27" viewBox="0 0 27 27" fill="none" xmlns="http://www.w3.org/2000/svg">
<g clip-path="url(#clip0_206_82)">
<path d="M13.5 23.625C19.0919 23.625 23.625 19.0919 23.625 13.5C23.625 7.90812 19.0919 3.375 13.5 3.375C7.90812 3.375 3.375 7.90812 3.375 13.5C3.375 19.0919 7.90812 23.625 13.5 23.625Z" stroke="#FF8906" stroke-width="2" stroke-linecap="round" stroke-linejoin="round"/>
<path d="M13.5 15.75C14.7426 15.75 15.75 14.7426 15.75 13.5C15.75 12.2574 14.7426 11.25 13.5 11.25C12.2574 11.25 11.25 12.2574 11.25 13.5C11.25 14.7426 12.2574 15.75 13.5 15.75Z" stroke="#FF8906" stroke-width="2" stroke-linecap="round" stroke-linejoin="round"/>
<path d="M13.5 15.75V23.625" stroke="#FF8906" stroke-width="2" stroke-linecap="round" stroke-linejoin="round"/>
<path d="M11.25 13.5L3.65625 11.25" stroke="#FF8906" stroke-width="2" stroke-linecap="round" stroke-linejoin="round"/>
<path d="M15.75 13.5L23.3438 11.25" stroke="#FF8906" stroke-width="2" stroke-linecap="round" stroke-linejoin="round"/>
</g>
<defs>
<clipPath id="clip0_206_82">
<rect width="27" height="27" fill="white"/>
</clipPath>
</defs>
</svg>
