<svg width="27" height="27" viewBox="0 0 27 27" fill="none" xmlns="http://www.w3.org/2000/svg">
<path fill-rule="evenodd" clip-rule="evenodd" d="M4.15943 14.2675C2.97511 14.2675 2.0149 15.7747 2.0149 17.6337C2.0149 19.4928 2.97511 21 4.15943 21C5.34376 21 6.30396 19.4928 6.30396 17.6337C6.30396 15.7747 5.34376 14.2675 4.15943 14.2675ZM21.9441 16.0265V17.2371H21.1729C21.2651 16.6439 21.564 16.1713 21.9441 16.0265ZM21.1707 18.0269H21.9441V19.2375C21.564 19.0961 21.2651 18.6236 21.1707 18.0269ZM22.4473 19.241V18.0304H23.2185C23.1262 18.6236 22.8252 19.0927 22.4473 19.241ZM23.2185 17.2405H22.4473V16.0299C22.8252 16.1713 23.1262 16.6439 23.2185 17.2405ZM3.90675 16.0265V17.2371H3.13551C3.22779 16.6439 3.52662 16.1713 3.90675 16.0265ZM3.13551 18.0269H3.90675V19.2375C3.52662 19.0961 3.22779 18.6236 3.13551 18.0269ZM4.40992 19.241V18.0304H5.18116C5.08888 18.6236 4.79005 19.0927 4.40992 19.241ZM5.18336 17.2405H4.41212V16.0299C4.79005 16.1713 5.08888 16.6439 5.18336 17.2405ZM16.1675 10.4114C16.5059 10.2907 16.842 10.2907 17.1804 10.3148C14.5327 8.1316 13.4934 6.71404 10.3931 7.00032L10.8193 11.4392L15.9236 11.7428C15.8774 11.5324 15.8511 11.4185 15.8423 11.2082C15.8181 10.608 15.8225 10.5356 16.1675 10.4114ZM9.61305 7.07964L10.1668 11.3806L4.86475 11.0426C4.31983 11.0081 4.22535 10.6322 4.55494 9.91131C4.70435 9.58365 4.87135 9.25944 5.06251 8.93868C6.4336 6.64161 7.7981 7.11758 9.61305 7.07964ZM26.8967 15.4091H26.7341C26.6331 14.7055 26.4331 14.0709 26.1387 13.5018C25.4927 12.2394 25.1983 12.3981 24.238 12.1256L18.8635 10.5356C17.6704 9.20426 16.2312 8.01778 14.4756 7.01756C12.8474 6.08632 11.6983 5.99664 9.95582 6.00009C8.95826 6.00354 7.94752 6.09666 6.92139 6.28981C6.40064 6.34155 5.89088 6.45192 5.3899 6.61057C4.79005 6.80027 4.20118 7.0624 3.6233 7.37281L1.46998 9.32497C0.834969 9.90096 0.69874 10.5735 0.617441 11.6738L0.314217 15.7368H8.00937e-06V17.9821C0.0439533 18.7374 0.232919 18.8512 0.632822 18.8512H1.15357C0.951424 11.7497 7.3169 10.5356 7.17848 19.4134H19.3601C18.5405 13.2914 22.4736 11.1668 24.405 14.6675C24.9917 15.7333 25.1961 17.1888 25.1433 18.9099H26.5518C26.6638 18.8271 26.7517 18.7133 26.8176 18.5719C27.0483 18.0787 26.9978 16.5921 26.9802 15.7333C26.978 15.5022 27.0242 15.4091 26.8967 15.4091ZM22.1946 14.2675C21.0103 14.2675 20.0501 15.7747 20.0501 17.6337C20.0501 19.4928 21.0103 21 22.1946 21C23.3789 21 24.3391 19.4928 24.3391 17.6337C24.3391 15.7747 23.3789 14.2675 22.1946 14.2675Z" fill="#FF8906"/>
</svg>
