<svg width="27" height="24" viewBox="0 0 27 24" fill="none" xmlns="http://www.w3.org/2000/svg">
<g clip-path="url(#clip0_8_4)">
<path d="M3.01984 9.00901H23.9757L21.7254 2.25225H5.27009L3.01984 9.00901ZM21.7239 16.4685C22.333 16.4685 22.8605 16.2457 23.3066 15.8003C23.7526 15.3549 23.9752 14.8268 23.9742 14.2162C23.9732 13.6056 23.7506 13.0776 23.3066 12.6321C22.8625 12.1867 22.335 11.964 21.7239 11.964C21.1128 11.964 20.5853 12.1867 20.1412 12.6321C19.6972 13.0776 19.4747 13.6056 19.4737 14.2162C19.4727 14.8268 19.6952 15.3549 20.1412 15.8003C20.5873 16.2457 21.1148 16.4685 21.7239 16.4685ZM5.27009 16.4685C5.87915 16.4685 6.40671 16.2457 6.85276 15.8003C7.29881 15.3549 7.52134 14.8268 7.52034 14.2162C7.51934 13.6056 7.29681 13.0776 6.85276 12.6321C6.40871 12.1867 5.88115 11.964 5.27009 11.964C4.65902 11.964 4.13146 12.1867 3.68741 12.6321C3.24336 13.0776 3.02084 13.6056 3.01984 14.2162C3.01884 14.8268 3.24136 15.3549 3.68741 15.8003C4.13346 16.2457 4.66102 16.4685 5.27009 16.4685ZM23.9052 1.47748L27 10.4865V22.5225C27 22.9449 26.8595 23.2968 26.5785 23.5781C26.2974 23.8594 25.9459 24 25.5238 24H23.9772C23.5551 24 23.2036 23.8594 22.9226 23.5781C22.6415 23.2968 22.501 22.9449 22.501 22.5225V20.9745H4.499V22.5225C4.499 22.9449 4.35848 23.2968 4.07745 23.5781C3.79642 23.8594 3.44488 24 3.02284 24H1.47616C1.05412 24 0.702578 23.8594 0.421547 23.5781C0.140515 23.2968 0 22.9449 0 22.5225V10.4865L3.09484 1.47748C3.37588 0.492493 4.10246 0 5.27459 0H21.7299C22.902 0 23.6286 0.492493 23.9097 1.47748H23.9052Z" fill="#FF8906"/>
</g>
<defs>
<clipPath id="clip0_8_4">
<rect width="27" height="24" fill="white"/>
</clipPath>
</defs>
</svg>
