<svg width="27" height="27" viewBox="0 0 27 27" fill="none" xmlns="http://www.w3.org/2000/svg">
<g clip-path="url(#clip0_207_93)">
<path d="M24 0H14.115C13.3206 0.00301427 12.56 0.289456 12 0.7965L0.885 10.8C0.321618 11.304 0.00334918 11.9886 0 12.7035V24.3C0 25.0161 0.31607 25.7028 0.87868 26.2092C1.44129 26.7155 2.20435 27 3 27H24C24.7956 27 25.5587 26.7155 26.1213 26.2092C26.6839 25.7028 27 25.0161 27 24.3V2.7C27 1.98392 26.6839 1.29716 26.1213 0.790812C25.5587 0.284463 24.7956 0 24 0ZM24 10.8H5.115L14.115 2.7H24V10.8Z" fill="#FF8906"/>
<path d="M22.5 16.2H18C17.6022 16.2 17.2206 16.0578 16.9393 15.8046C16.658 15.5514 16.5 15.208 16.5 14.85C16.5 14.492 16.658 14.1486 16.9393 13.8954C17.2206 13.6422 17.6022 13.5 18 13.5H22.5C22.8978 13.5 23.2794 13.6422 23.5607 13.8954C23.842 14.1486 24 14.492 24 14.85C24 15.208 23.842 15.5514 23.5607 15.8046C23.2794 16.0578 22.8978 16.2 22.5 16.2Z" fill="white"/>
</g>
<defs>
<clipPath id="clip0_207_93">
<rect width="27" height="27" fill="white"/>
</clipPath>
</defs>
</svg>
