<svg width="24" height="24" viewBox="0 0 24 24" fill="none" xmlns="http://www.w3.org/2000/svg">
<path d="M24 8.77096V20.6135C24 21.9264 23.036 23 21.8571 23H2.14391C0.96496 23 0.000999958 21.9264 0.000999958 20.6135V8.77096C0.402983 9.26319 0.857964 9.69529 1.35394 10.0684C3.57685 11.7533 5.82676 13.4394 8.00967 15.2145C9.13462 16.1388 10.5276 17.2725 11.9875 17.2725H12.0145C13.4744 17.2725 14.8674 16.1388 15.9923 15.2145C18.1752 13.455 20.4251 11.7544 22.6621 10.0684C23.144 9.69529 23.599 9.26319 24 8.77096ZM24 4.38543C24 6.05589 22.888 7.56266 21.7101 8.4725C19.6212 10.0828 17.5183 11.6943 15.4424 13.3202C14.5714 13.9917 13.0985 15.3637 12.0135 15.3637H11.9865C10.9015 15.3637 9.42861 13.9917 8.55764 13.3202C6.48173 11.6943 4.37882 10.0839 2.3039 8.4725C1.35294 7.75643 0 6.07149 0 4.71395C0 3.25174 0.70997 2 2.14291 2H21.8561C23.021 2 23.999 3.07355 23.999 4.38654L24 4.38543Z" fill="#FF8906"/>
</svg>
