<svg width="27" height="27" viewBox="0 0 27 27" fill="none" xmlns="http://www.w3.org/2000/svg">
<g clip-path="url(#clip0_202_42)">
<path d="M3.15956 26.9999C1.41731 26.9999 0 25.8069 0 24.3405V4.73367C0 3.26724 1.41731 2.07431 3.15956 2.07431H11.8201C13.4411 2.07431 14.9181 3.08025 15.2557 4.41413L15.5864 5.7161C15.64 5.92773 16.0151 6.2936 16.2557 6.36905L16.6163 6.48228C16.6721 6.22726 16.7979 5.98078 16.9899 5.76005L21.2039 0.912023C21.6787 0.366293 22.5369 0 23.3395 0H24.9469C25.5952 0 26.1896 0.241022 26.5768 0.661343C26.9638 1.08152 27.0934 1.62585 26.9324 2.15437L24.9947 8.49976C24.883 8.86423 24.6439 9.17804 24.3234 9.40968C24.8604 9.98103 25.1915 10.6957 25.1916 11.4036V24.3406C25.1916 25.8072 23.7743 27 22.0321 27L3.15956 26.9999Z" fill="white"/>
<path d="M22.1259 9.70418L15.6752 7.68054C14.9036 7.43854 14.1324 6.68622 13.9602 6.00878L13.6293 4.70583C13.4579 4.02825 12.6432 3.47398 11.8201 3.47398H3.15955C2.3364 3.47398 1.66292 4.04085 1.66292 4.73368V24.3405C1.66292 25.0333 2.3364 25.6002 3.15955 25.6002H22.0317C22.8546 25.6002 23.5284 25.0333 23.5284 24.3405V11.4038C23.5282 10.711 22.8971 9.94604 22.1259 9.70418ZM3.75454 6.44828C3.75454 5.7525 4.42454 5.18858 5.25118 5.18858H10.5725C11.3992 5.18858 12.0692 5.7525 12.0692 6.44828C12.0692 7.14405 11.3992 7.70798 10.5725 7.70798H5.25118C4.42454 7.70798 3.75454 7.14405 3.75454 6.44828ZM16.0173 21.7034C13.6709 23.7948 9.51973 23.1761 8.21933 20.431C7.75853 19.4587 7.8332 18.4766 8.18674 17.4946C8.64603 16.2192 9.37024 15.0478 10.1821 13.9109C10.8906 12.9188 11.6802 11.9732 12.5108 11.0514C12.5313 11.0287 12.5554 11.0085 12.6068 10.9594C12.9148 11.311 13.2129 11.6388 13.4955 11.9758C14.6292 13.3285 15.6819 14.7216 16.4678 16.2459C16.8433 16.9743 17.156 17.7204 17.2596 18.5159C17.4188 19.7356 17.0185 20.8111 16.0173 21.7034ZM11.3089 19.9269C10.7365 19.195 10.3944 18.3958 10.4062 17.5154C10.4131 17.0121 10.501 16.5094 10.5497 16.0312C10.5612 16.0189 10.5438 16.0329 10.534 16.0496C10.1184 16.76 9.73143 17.4791 9.50793 18.2549C9.24851 19.156 9.40699 19.9905 9.98918 20.7721C10.2089 21.0665 10.5276 21.2458 10.9311 21.3141C11.2658 21.3711 11.5801 21.268 11.7467 21.0499C11.9291 20.8115 11.846 20.5895 11.6756 20.3764C11.5548 20.2263 11.4278 20.0788 11.3089 19.9269ZM23.3839 8.15125C23.3155 8.37492 23.0491 8.49221 22.7919 8.41173L18.5048 7.07197C18.2476 6.99163 18.1694 6.77342 18.3317 6.58698L22.5463 1.7384C22.7086 1.55196 23.0652 1.39954 23.3396 1.39954H24.947C25.2214 1.39954 25.39 1.58261 25.3218 1.80614L23.3839 8.15125Z" fill="#FF8906"/>
</g>
<defs>
<clipPath id="clip0_202_42">
<rect width="27" height="27" fill="white"/>
</clipPath>
</defs>
</svg>
