<svg width="24" height="24" viewBox="0 0 24 24" fill="none" xmlns="http://www.w3.org/2000/svg">
<g clip-path="url(#clip0_7_9)">
<path d="M6.54545 0C4.73782 0 3.10036 0.734182 1.91673 1.91673C0.733091 3.09927 0 4.73782 0 6.54545V17.4545C0 19.2622 0.734182 20.8996 1.91673 22.0833C3.09927 23.2669 4.73782 24 6.54545 24H17.4545C19.2622 24 20.8996 23.2658 22.0833 22.0833C23.2669 20.9007 24 19.2622 24 17.4545V6.54545C24 4.73782 23.2658 3.10036 22.0833 1.91673C20.9007 0.733091 19.2622 0 17.4545 0H6.54545ZM6.54545 2.18182H17.4545C18.66 2.18182 19.7487 2.66945 20.5396 3.46036C21.3305 4.25127 21.8182 5.34 21.8182 6.54545V17.4545C21.8182 18.66 21.3305 19.7487 20.5396 20.5396C19.7487 21.3305 18.66 21.8182 17.4545 21.8182H6.54545C5.34 21.8182 4.25127 21.3305 3.46036 20.5396C2.66945 19.7487 2.18182 18.66 2.18182 17.4545V6.54545C2.18182 5.34 2.66945 4.25127 3.46036 3.46036C4.25127 2.66945 5.34 2.18182 6.54545 2.18182V2.18182ZM17.4425 11.1524C17.2789 10.092 16.8196 9.12655 16.14 8.352C15.3175 7.41273 14.172 6.75382 12.8575 6.55855C12.3513 6.47782 11.7993 6.47455 11.2462 6.55636C9.756 6.77673 8.496 7.58291 7.66582 8.70218C6.83564 9.82146 6.42982 11.2625 6.65127 12.7516C6.87273 14.2407 7.67782 15.5018 8.79709 16.332C9.91636 17.1622 11.3575 17.568 12.8465 17.3465C14.3356 17.1251 15.5967 16.32 16.4269 15.2007C17.2571 14.0815 17.6629 12.6404 17.4415 11.1513L17.4425 11.1524ZM15.2847 11.4731C15.4178 12.3676 15.1756 13.2284 14.676 13.9025C14.1764 14.5767 13.4215 15.0578 12.528 15.1898C11.6345 15.3218 10.7727 15.0807 10.0985 14.5811C9.42436 14.0815 8.94327 13.3265 8.81127 12.4331C8.67927 11.5396 8.92036 10.6778 9.42 10.0036C9.91964 9.32945 10.6745 8.84836 11.568 8.71636C11.9095 8.66618 12.2389 8.67055 12.5171 8.71418C13.3244 8.83418 14.0073 9.22691 14.5004 9.78982C14.9095 10.2567 15.1876 10.8404 15.2858 11.4731H15.2847ZM18 7.09091C18.6022 7.09091 19.0909 6.60218 19.0909 6C19.0909 5.39782 18.6022 4.90909 18 4.90909C17.3978 4.90909 16.9091 5.39782 16.9091 6C16.9091 6.60218 17.3978 7.09091 18 7.09091Z" fill="#FF8906"/>
</g>
<defs>
<clipPath id="clip0_7_9">
<rect width="24" height="24" fill="white"/>
</clipPath>
</defs>
</svg>
