<svg width="27" height="27" viewBox="0 0 27 27" fill="none" xmlns="http://www.w3.org/2000/svg">
<g clip-path="url(#clip0_206_73)">
<path d="M5.4 21.4925C5.4 21.4925 0 10.7463 0 5.37313C0 0 3.6 0 3.6 0H5.4C5.4 0 7.2 0 7.2 1.34328C7.2 2.68657 5.4 2.68657 5.4 5.37313C5.4 8.0597 10.8 10.7463 10.8 14.7761C10.8 18.806 5.4 21.4925 5.4 21.4925ZM14.4 20.1493C12.6 20.1493 7.2 23.5075 7.2 23.5075C6.66 23.7761 6.84 24.1791 7.2 24.5821C7.2 24.5821 9 27 12.6 27H23.4C25.38 27 27 25.791 27 24.3134V22.9701C27 21.4925 25.38 20.2836 23.4 20.2836H14.4V20.1493Z" fill="#FF8906"/>
</g>
<defs>
<clipPath id="clip0_206_73">
<rect width="27" height="27" fill="white"/>
</clipPath>
</defs>
</svg>
