<svg width="26" height="25" viewBox="0 0 26 25" fill="none" xmlns="http://www.w3.org/2000/svg">
<path fill-rule="evenodd" clip-rule="evenodd" d="M13.0317 4.52279e-05C6.24291 -0.0157919 4.53414 4.13129 4.53996 6.58184C4.55256 11.866 8.00843 15.9117 13.1137 22.506C18.1013 15.8411 21.461 11.8763 21.461 6.60154C21.461 3.99766 19.8205 0.0158824 13.0317 4.52279e-05V4.52279e-05ZM12.9497 3.3369C15.2844 3.33668 17.1772 4.81792 17.1774 6.64531C17.1772 8.47271 15.2844 9.95395 12.9497 9.95372C10.6154 9.95354 8.72315 8.47242 8.72293 6.64531C8.72315 4.8182 10.6154 3.33708 12.9497 3.3369Z" fill="#FF8906"/>
<path d="M18.0481 19.1107C20.5326 19.3568 22.5483 19.777 23.7604 20.3017C24.9726 20.8263 25.3084 21.4237 24.712 21.9947C24.1155 22.5657 22.6229 23.076 20.4817 23.4407C18.3406 23.8055 15.6799 24.0028 12.9414 24C10.2028 23.9971 7.55126 23.7942 5.42693 23.425C3.3026 23.0558 1.83333 22.5425 1.26307 21.9702C0.692806 21.398 1.05587 20.8013 2.29197 20.2793C3.52808 19.7572 5.56285 19.3411 8.05844 19.1002" stroke="#FF8906" stroke-width="1.61804" stroke-linecap="round"/>
</svg>
