<svg width="27" height="27" viewBox="0 0 27 27" fill="none" xmlns="http://www.w3.org/2000/svg">
<g clip-path="url(#clip0_204_51)">
<path d="M12.1673 0.279169L12.3573 0.383406L23.0586 6.81437C24.3094 7.56605 24.7771 9.18739 24.1638 10.521L24.0636 10.7187L15.8257 25.5704C15.1036 26.8724 13.546 27.3592 12.2647 26.7209L12.0748 26.6167L1.37343 20.1857C0.122609 19.434 -0.345111 17.8126 0.268201 16.479L0.368342 16.2812L6.5467 5.14256L4.16862 3.71344C3.51194 3.31881 3.28694 2.44479 3.66607 1.76126C4.01814 1.12655 4.76731 0.879282 5.39832 1.16316L5.5416 1.23817L7.91968 2.66728L8.60621 1.42958C9.29036 0.196151 10.7244 -0.30572 11.9629 0.187676L12.1673 0.279169ZM24.6698 12.399L24.9405 12.071L25.045 12.1951L25.3165 12.5311L25.5595 12.8458L25.8302 13.2142L26.1103 13.62C26.5745 14.3185 27 15.1056 27 15.6437C27 16.8276 26.0779 17.7874 24.9405 17.7874C23.8032 17.7874 22.8811 16.8276 22.8811 15.6437C22.8811 14.998 23.4938 13.9937 24.0508 13.2142L24.3216 12.8458L24.6698 12.399ZM10.9843 2.85868L10.2978 4.09639L11.4867 4.81092C12.1434 5.20556 12.3684 6.07958 11.9894 6.76312C11.6102 7.44665 10.7704 7.68083 10.1138 7.2862L8.92478 6.57166L6.66715 10.6418H20.9356L21.6856 9.28965L10.9843 2.85868Z" fill="#FF8906"/>
</g>
<defs>
<clipPath id="clip0_204_51">
<rect width="27" height="27" fill="white"/>
</clipPath>
</defs>
</svg>
