<svg width="24" height="24" viewBox="0 0 24 24" fill="none" xmlns="http://www.w3.org/2000/svg">
<g clip-path="url(#clip0_7_13)">
<path d="M1.59801 0.890541C2.55786 -0.0699718 5.46144 -0.229891 5.48248 0.277852C5.50352 0.785595 8.0965 6.41774 8.11954 6.92648C8.14159 7.43422 6.41026 9.16535 5.90429 9.67209C5.40232 10.1738 9.2918 14.5696 9.36494 14.6526C9.44709 14.7265 13.8435 18.6156 14.3455 18.1138C14.8515 17.6071 16.5838 15.8759 17.0908 15.8989C17.5988 15.9209 23.2326 18.5126 23.7406 18.5366C24.2485 18.5586 24.0882 21.4601 23.1284 22.4216C22.3068 23.2422 18.0546 26.2227 10.6604 20.9004C9.84987 20.4346 8.5654 19.3642 6.61766 17.4172C6.61666 17.4162 6.61565 17.4152 6.61365 17.4142C6.61165 17.4122 6.61064 17.4112 6.60864 17.4092C6.60664 17.4072 6.60563 17.4062 6.60363 17.4042C6.60263 17.4022 6.60163 17.4012 6.60063 17.4002C4.65489 15.4532 3.58383 14.1678 3.11793 13.3572C-2.20429 5.96297 0.776436 1.71013 1.59701 0.889542L1.59801 0.890541Z" fill="#FF8906"/>
</g>
<defs>
<clipPath id="clip0_7_13">
<rect width="24" height="24" fill="white"/>
</clipPath>
</defs>
</svg>
