<svg width="47" height="47" viewBox="0 0 47 47" fill="none" xmlns="http://www.w3.org/2000/svg">
<g clip-path="url(#clip0_26_28)">
<path d="M7.371 19.227H2.137C0.957 19.227 0 20.184 0 21.364V44.864C0 46.043 0.957 47 2.137 47H7.371C8.551 47 9.507 46.043 9.507 44.864V21.364C9.507 20.184 8.551 19.227 7.371 19.227Z" fill="#4AFF4A"/>
<path d="M19.869 25.635H14.635C13.454 25.635 12.498 26.592 12.498 27.772V44.862C12.498 46.043 13.454 46.999 14.635 46.999H19.869C21.049 46.999 22.005 46.042 22.005 44.862V27.772C22.005 26.592 21.049 25.635 19.869 25.635Z" fill="#4A4AFF"/>
<path d="M32.365 25.635H27.131C25.951 25.635 24.995 26.592 24.995 27.772V44.862C24.995 46.043 25.951 46.999 27.131 46.999H32.365C33.546 46.999 34.502 46.042 34.502 44.862V27.772C34.502 26.592 33.546 25.635 32.365 25.635Z" fill="#4A4AFF"/>
<path d="M44.863 19.227H39.629C38.449 19.227 37.493 20.184 37.493 21.364V44.864C37.493 46.044 38.449 47 39.629 47H44.863C46.043 47 47 46.042 47 44.864V21.364C47 20.184 46.043 19.227 44.863 19.227Z" fill="#4AFF4A"/>
<path d="M24.123 12.87V16.716C25.287 16.639 26.514 16.093 26.514 14.812C26.514 13.49 25.169 13.103 24.123 12.87Z" fill="#FF8906"/>
<path d="M20.778 8.267C20.778 9.239 21.501 9.801 22.958 10.093V6.614C21.634 6.653 20.778 7.431 20.778 8.267Z" fill="#FF8906"/>
<path d="M23.5 0C17.021 0 11.75 5.272 11.75 11.75C11.75 18.226 17.021 23.498 23.5 23.498C29.979 23.498 35.25 18.226 35.25 11.75C35.25 5.272 29.979 0 23.5 0ZM24.123 18.699V19.902C24.123 20.233 23.869 20.563 23.537 20.563C23.209 20.563 22.958 20.233 22.958 19.902V18.699C19.675 18.619 18.042 16.657 18.042 15.122C18.042 14.347 18.511 13.899 19.245 13.899C21.421 13.899 19.729 16.58 22.958 16.715V12.655C20.078 12.132 18.334 10.869 18.334 8.713C18.334 6.072 20.53 4.71 22.958 4.634V3.598C22.958 3.267 23.209 2.937 23.537 2.937C23.869 2.937 24.123 3.267 24.123 3.598V4.634C25.637 4.674 28.746 5.624 28.746 7.529C28.746 8.286 28.18 8.732 27.519 8.732C26.255 8.732 26.273 6.655 24.123 6.615V10.306C26.687 10.851 28.958 11.608 28.958 14.6C28.958 17.202 27.016 18.522 24.123 18.699Z" fill="#FF8906"/>
</g>
<defs>
<clipPath id="clip0_26_28">
<rect width="47" height="47" fill="white"/>
</clipPath>
</defs>
</svg>
