<svg width="572" height="294" viewBox="0 0 572 294" fill="none" xmlns="http://www.w3.org/2000/svg">
<path d="M303.051 2.02954C281.451 3.76288 256.784 7.49621 243.984 11.0962C240.118 12.1629 232.118 13.7629 225.984 14.6962C213.984 16.4295 199.851 21.8962 184.651 30.6962C173.184 37.3629 147.318 54.2962 137.318 61.6295C133.451 64.4295 129.318 66.4295 128.384 66.0295C127.318 65.6295 126.784 66.0295 127.184 66.9629C128.251 70.0295 122.251 72.0295 106.651 73.8962C89.0509 76.0295 69.8509 80.1629 73.3176 80.9629C75.4509 81.3629 75.5843 81.7629 73.7176 85.3629L71.5843 89.2295H81.9843C87.7176 89.2295 100.518 88.2962 110.384 87.2295C141.051 83.8962 162.518 82.4295 175.051 82.8295L187.051 83.2295L179.184 87.8962C157.318 100.963 134.918 111.096 137.584 106.696C138.651 104.963 140.518 105.096 107.451 105.23C92.2509 105.363 81.0509 104.83 81.0509 104.163C81.0509 103.496 77.0509 102.563 72.2509 102.03C63.0509 101.096 49.1843 103.23 47.4509 105.763C46.9176 106.563 46.1176 106.696 45.5843 106.163C45.0509 105.763 45.4509 104.43 46.3843 103.23C47.3176 102.163 47.4509 101.23 46.7843 101.23C45.3176 101.23 41.0509 109.763 41.0509 112.563C41.0509 115.363 38.7843 116.163 35.7176 114.563C32.5176 112.83 32.3843 113.63 34.6509 124.43C36.1176 132.03 36.1176 132.163 32.3843 135.096C29.8509 137.23 28.9176 138.696 29.7176 140.03C30.5176 141.496 30.3843 141.496 29.0509 140.296C27.8509 139.096 26.7843 139.096 24.9176 140.296C22.9176 141.496 21.7176 141.23 18.3843 138.83C14.5176 135.896 14.3843 135.896 14.3843 138.43C14.3843 139.896 15.5843 141.896 17.0509 142.963C18.9176 144.296 20.6509 148.43 22.5176 156.696C24.1176 163.23 25.8509 169.63 26.6509 171.096C27.4509 172.563 27.4509 173.896 26.6509 174.43C25.0509 175.496 23.3176 182.03 23.0509 187.763C22.7843 191.23 21.1843 193.763 15.1843 199.63C10.7843 203.896 7.18427 208.696 6.78427 210.83C6.38427 212.83 5.45093 214.563 4.65093 214.563C3.85093 214.563 4.38427 215.496 5.85093 216.696C7.18427 217.763 7.58427 218.43 6.78427 217.896C5.85093 217.496 5.05093 217.63 5.05093 218.43C5.05093 219.096 5.85093 220.03 6.78427 220.296C7.58427 220.696 6.78427 221.096 4.78427 221.096C2.65093 221.23 1.05093 221.763 1.05093 222.563C1.05093 224.296 8.5176 228.03 12.9176 228.43C15.5843 228.696 16.5176 229.63 16.7843 232.43C17.1843 235.23 18.1176 236.163 21.1843 236.83C24.1176 237.363 25.8509 238.963 27.9843 243.096C33.8509 254.696 41.9843 262.03 52.7843 265.763L57.5843 267.496L49.7176 268.43C39.8509 269.496 14.3843 275.763 11.9843 277.63C7.85093 280.83 17.5843 282.963 53.0509 286.43C119.584 293.096 193.718 294.963 251.051 291.23C307.318 287.63 328.651 284.963 344.518 279.763C357.051 275.763 490.918 255.763 523.051 253.23C541.851 251.763 555.318 249.496 556.518 247.763C557.184 246.696 555.184 246.03 552.651 246.43C551.984 246.563 553.318 243.496 555.451 239.63C561.184 229.496 565.051 215.896 565.984 202.03C566.384 195.363 567.318 189.496 567.984 189.096C569.851 187.896 571.851 168.296 570.918 159.896C570.518 155.896 569.051 147.496 567.718 141.23C566.251 134.963 564.518 121.23 563.718 110.563C562.118 86.5629 560.384 80.2962 554.251 76.2962C545.051 70.2962 543.718 68.9629 534.118 56.8295C519.051 37.8962 516.251 34.0295 515.318 31.4962C513.718 27.2295 479.584 13.8962 453.584 7.36288C441.584 4.29621 440.251 4.82954 451.051 8.56288C462.651 12.4295 461.718 12.5629 447.451 9.36288C441.318 7.89621 432.251 6.29621 427.051 5.76288C416.518 4.82954 414.118 3.89621 417.851 2.42954C419.451 1.76288 417.451 1.36288 412.384 1.36288C407.984 1.36288 403.184 1.89621 401.718 2.56288C399.851 3.36288 401.184 3.49621 405.718 3.22954L412.384 2.69621L406.518 3.89621C403.184 4.56288 399.984 5.76288 399.184 6.56288C398.518 7.22954 396.784 7.89621 395.584 7.89621C394.384 7.89621 393.051 8.82954 392.518 9.89621C392.118 10.9629 391.984 11.8962 392.118 11.8962C392.251 11.8962 396.251 10.6962 400.784 9.22954C411.051 6.02954 419.718 5.89621 434.518 8.69621C446.384 10.8295 469.451 17.3629 468.518 18.1629C468.251 18.4295 461.184 17.0962 452.918 15.0962C431.718 9.89621 409.051 9.76288 398.651 14.4295C386.651 19.8962 367.851 44.0295 360.251 63.8962C357.051 72.2962 356.251 73.2295 355.984 70.1629C355.051 61.7629 360.651 48.4295 371.184 34.6962C376.651 27.3629 383.318 19.4962 385.984 17.3629C390.651 13.4962 392.918 9.22954 390.251 9.22954C389.584 9.22954 389.051 9.89621 389.051 10.6962C389.051 11.3629 388.518 11.7629 387.851 11.2295C387.184 10.8295 386.251 11.0962 385.718 11.8962C385.184 12.6962 384.251 12.9629 383.584 12.5629C382.918 12.0295 382.384 12.6962 382.384 13.8962C382.384 15.0962 381.851 15.7629 381.051 15.2295C379.318 14.1629 363.318 29.4962 356.651 38.5629C349.851 47.7629 348.251 49.3629 347.184 48.1629C346.651 47.7629 346.651 48.1629 347.051 49.2295C347.718 51.2295 339.851 59.8962 337.451 59.8962C336.918 59.8962 337.318 59.2295 338.384 58.5629C339.584 57.7629 339.718 57.2295 338.784 57.2295C337.851 57.2295 335.851 58.5629 334.251 60.1629C331.718 62.8295 331.451 62.8295 332.251 60.6962C333.051 58.4295 332.918 58.4295 330.784 60.0295C328.784 61.7629 328.651 61.6295 329.451 58.5629C329.984 56.6962 331.051 50.6962 331.851 45.2295C332.651 39.7629 333.851 34.6962 334.384 34.1629C336.384 31.8962 342.118 35.7629 343.718 40.4295C345.051 44.5629 347.718 47.0962 347.718 44.1629C347.718 43.6295 348.918 41.7629 350.384 39.8962C356.651 32.1629 364.784 20.5629 364.384 20.1629C364.118 19.8962 363.184 20.0295 362.251 20.5629C361.451 21.2295 357.584 21.6295 353.851 21.7629C348.384 21.8962 347.184 22.2962 347.451 24.0295C347.584 25.4962 346.251 26.8295 343.584 27.7629C338.118 29.6295 336.651 29.6295 337.851 27.6295C338.384 26.6962 338.251 26.5629 337.318 27.0962C336.518 27.6295 334.651 26.8295 333.051 25.2295C330.251 22.4295 323.718 21.4962 323.718 23.8962C323.718 24.5629 322.651 25.2295 321.451 25.3629C319.451 25.3629 319.451 25.6295 321.718 26.5629L324.384 27.7629L321.718 27.8962C319.318 28.0295 319.318 28.1629 322.251 29.3629C324.384 30.1629 325.051 31.2295 324.384 32.9629C323.984 34.1629 322.918 38.1629 322.251 41.8962C321.451 45.4962 319.318 52.2962 317.318 56.9629C313.584 65.6295 311.451 67.2295 304.251 66.2962L300.384 65.7629L305.451 63.6295L310.384 61.3629V52.6962C310.384 44.9629 309.984 43.7629 307.184 41.8962C303.051 39.0962 285.718 38.9629 279.318 41.6295C275.318 43.3629 274.651 44.2962 273.851 49.7629C272.651 57.7629 275.051 62.9629 280.384 63.8962C285.451 64.8295 284.918 66.9629 279.451 68.0295C271.851 69.4962 299.051 69.3629 312.118 67.8962C327.718 66.0295 328.118 66.0295 330.118 64.8295C330.918 64.1629 331.718 64.2962 331.718 65.0962C331.718 67.4962 329.184 68.0295 312.651 69.3629C289.584 71.2295 285.318 72.5629 299.051 73.6295C304.918 74.1629 314.251 74.5629 319.718 74.6962C331.984 74.8295 349.051 76.9629 351.718 78.6962C353.051 79.6295 351.184 79.6295 346.384 78.9629C334.784 77.4962 293.851 78.4295 279.451 80.5629C272.251 81.6295 262.918 82.5629 258.784 82.6962C254.518 82.6962 251.851 83.0962 252.784 83.4962C255.318 84.4295 254.651 86.5629 251.718 86.5629C249.451 86.5629 233.718 91.3629 210.384 99.2295C207.051 100.296 199.584 101.496 193.718 101.896C187.851 102.296 181.851 102.963 180.384 103.363L177.718 104.03L180.384 102.296C181.851 101.363 183.318 100.563 183.718 100.43C184.118 100.43 187.451 98.9629 191.051 97.3629C203.051 92.0295 205.584 90.9629 211.051 89.2295C213.984 88.2962 217.184 86.9629 218.118 86.1629C218.918 85.4962 219.718 85.2295 219.718 85.6295C219.718 86.0295 223.318 85.0962 227.851 83.7629C232.251 82.4295 237.451 81.2295 239.184 81.2295C240.918 81.2295 242.384 80.5629 242.384 79.7629C242.384 78.9629 243.584 78.5629 245.051 78.9629C248.251 79.7629 249.851 77.8962 246.918 76.6962C242.651 75.0962 233.051 75.8962 232.251 77.8962C231.718 78.9629 230.384 79.8962 229.184 79.8962C227.318 79.8962 227.318 79.6295 229.051 78.4295C230.518 77.4962 229.584 77.3629 225.718 77.8962C216.118 79.3629 209.051 81.7629 210.784 82.8295C211.718 83.4962 211.051 83.6295 209.051 83.2295C207.184 82.8295 203.184 83.3629 199.984 84.4295C196.784 85.6295 194.651 86.0295 194.918 85.3629C195.318 84.8295 199.451 83.2295 203.984 81.8962C208.651 80.6962 212.918 79.2295 213.584 78.8295C217.051 76.8295 205.184 75.4962 175.051 74.9629C156.784 74.5629 140.251 73.6295 138.384 72.8295C136.518 72.0295 134.651 71.3629 134.118 71.3629C133.451 71.2295 133.051 70.8295 133.051 70.1629C133.051 69.6295 133.051 68.8295 133.051 68.1629C133.051 66.4295 142.518 60.8295 143.451 62.0295C143.984 62.6962 144.118 63.0962 143.851 62.9629C143.584 62.6962 142.384 63.8962 141.318 65.3629C139.718 67.7629 139.584 68.4295 141.184 69.3629C142.251 70.0295 142.518 70.5629 141.718 70.5629C141.051 70.5629 141.184 71.2295 141.984 72.0295C143.051 73.0962 145.718 73.0962 150.651 72.4295L157.718 71.3629L151.718 70.4295L145.718 69.6295L152.518 69.4962C159.318 69.2295 159.318 69.2295 161.584 63.2295C163.318 58.9629 163.584 56.6962 162.518 54.9629C161.718 53.6295 161.051 53.2295 161.051 53.8962C161.051 56.2962 149.051 67.8962 146.651 67.7629C145.451 67.7629 145.051 67.3629 145.984 67.0962C146.918 66.6962 147.318 65.6295 146.918 64.5629C146.518 63.4962 147.451 62.4295 149.051 61.8962C152.251 60.8295 154.784 55.7629 152.651 54.4295C151.051 53.3629 158.384 49.3629 160.518 50.1629C162.118 50.6962 164.784 48.1629 164.918 45.8962C165.051 45.0962 165.851 44.5629 166.784 44.5629C167.584 44.5629 168.251 45.3629 168.118 46.1629C167.851 47.0962 168.384 47.8962 169.051 47.8962C170.784 47.8962 170.784 46.1629 169.051 44.4295C167.984 43.3629 171.451 40.6962 180.251 35.3629C191.851 28.4295 195.051 27.3629 216.651 22.0295C237.984 16.6962 269.718 10.8295 288.784 8.56288C296.918 7.62954 335.851 7.62954 363.051 8.42954C376.651 8.82954 379.184 8.69621 372.384 7.89621C367.318 7.36288 353.184 6.69621 341.051 6.56288C320.251 6.16288 319.718 6.02954 331.051 5.09621C337.718 4.56288 352.384 4.16288 363.851 4.02954C380.651 3.89621 385.051 3.49621 386.384 1.89621C387.851 0.162875 384.384 -0.103791 356.251 0.029542C338.651 0.162875 314.784 0.962875 303.051 2.02954ZM502.518 31.4962C504.251 33.6295 504.118 33.7629 502.118 32.0295C499.851 30.2962 499.184 29.2295 500.251 29.2295C500.518 29.2295 501.584 30.2962 502.518 31.4962ZM486.518 36.4295C491.584 41.7629 497.451 56.1629 497.584 63.2295C497.718 70.8295 499.318 70.4295 479.051 68.4295C470.384 67.6295 469.051 67.2295 471.451 66.1629C473.051 65.3629 474.784 63.3629 475.184 61.6295C476.384 57.2295 475.051 46.6962 473.184 44.8295C472.384 44.0295 467.184 43.0962 461.718 42.8295C456.251 42.5629 451.718 41.8962 451.718 41.3629C451.718 40.9629 451.318 39.2295 450.918 37.6295C450.251 35.0962 450.784 34.6962 455.318 34.1629C458.118 33.8962 465.718 33.6295 472.118 33.6295C482.384 33.6295 484.251 33.8962 486.518 36.4295ZM435.584 41.4962C437.851 52.9629 439.718 64.2962 439.718 66.1629C439.718 67.3629 437.318 67.8962 431.184 67.8962C426.518 67.8962 422.384 68.4295 422.118 69.0962C421.584 70.6962 394.251 71.2295 387.451 69.8962C384.651 69.3629 382.384 68.4295 382.384 67.8962C382.384 65.8962 392.251 65.0962 399.584 66.5629C409.184 68.2962 409.051 68.4295 409.051 64.6962C409.051 60.5629 409.584 60.2962 418.251 59.0962L425.318 58.1629L424.384 62.6962C423.451 66.8295 423.584 66.9629 425.584 65.3629C427.184 64.0295 427.718 62.1629 427.318 58.8295C426.651 54.0295 423.851 49.6295 424.118 54.0295C424.384 56.2962 423.184 56.5629 411.718 56.5629C404.784 56.5629 398.518 56.9629 397.718 57.3629C397.051 57.8962 394.118 58.6962 391.318 59.0962C387.451 59.8962 386.384 59.6295 387.184 58.4295C388.118 56.8295 385.584 57.0962 377.984 59.3629C376.118 60.0295 375.584 59.4962 375.984 57.6295C376.251 56.2962 379.318 53.7629 383.051 51.8962C388.518 49.2295 392.118 48.5629 403.451 48.1629C416.384 47.6295 417.051 47.4962 417.051 44.6962C417.051 43.0962 416.118 40.5629 415.051 38.9629C413.051 36.1629 413.184 36.0295 418.651 35.4962C434.918 34.0295 433.984 33.7629 435.584 41.4962ZM509.051 49.7629C509.051 53.6295 507.184 52.0295 503.051 44.9629C497.451 35.0962 497.451 34.9629 503.584 41.6295C506.518 44.8295 509.051 48.5629 509.051 49.7629ZM163.051 47.8962C162.651 48.5629 161.584 49.2295 160.918 49.2295C160.118 49.2295 159.984 48.5629 160.384 47.8962C160.784 47.0962 161.851 46.5629 162.518 46.5629C163.318 46.5629 163.451 47.0962 163.051 47.8962ZM515.851 56.2962C511.318 63.6295 500.518 72.9629 494.918 74.2962C491.984 75.0962 478.651 76.0295 465.051 76.4295C451.451 76.8295 426.918 78.1629 410.384 79.2295C382.384 81.2295 372.784 81.0962 375.051 78.8295C375.451 78.2962 380.118 77.7629 385.451 77.6295C390.651 77.4962 411.051 76.5629 430.918 75.3629C450.784 74.1629 473.451 73.0962 481.184 72.8295C493.851 72.5629 495.851 72.1629 500.518 68.9629C503.318 67.0962 508.384 62.2962 511.718 58.1629C518.384 50.1629 520.251 49.2295 515.851 56.2962ZM149.718 58.5629C147.318 61.2295 143.718 62.1629 143.718 60.1629C143.718 58.9629 150.784 54.5629 151.584 55.3629C151.851 55.6295 151.051 57.0962 149.718 58.5629ZM299.584 65.7629C298.251 67.0962 286.384 67.7629 286.384 66.5629C286.384 65.7629 289.451 65.2295 293.318 65.2295C297.051 65.2295 299.851 65.4962 299.584 65.7629ZM523.718 73.2295C525.451 74.2962 525.451 74.5629 523.451 74.5629C522.251 74.5629 520.784 73.8962 520.384 73.2295C519.318 71.4962 521.051 71.4962 523.718 73.2295ZM552.384 80.5629C555.584 85.7629 557.318 94.2962 559.051 112.563C559.584 117.63 560.784 123.496 561.851 125.496C563.851 129.363 564.251 138.163 562.651 140.963C561.851 142.03 560.518 140.963 558.118 137.23C554.518 131.896 555.184 128.163 558.784 133.23C560.651 135.896 560.651 135.763 560.518 132.03C560.384 129.896 559.984 128.43 559.451 128.83C558.384 129.363 551.584 123.23 552.384 122.43C552.651 122.163 549.851 122.163 546.251 122.296L539.718 122.83L539.451 110.296C539.184 92.0295 539.184 91.3629 537.851 89.3629C537.051 88.0295 537.051 87.7629 538.118 88.4295C539.051 88.9629 539.718 88.8295 539.718 88.0295C539.718 87.3629 538.918 86.4295 538.118 86.0295C536.784 85.3629 536.784 85.0962 537.984 84.4295C538.918 84.0295 539.318 82.9629 538.918 81.8962C538.518 80.9629 538.784 79.7629 539.584 79.2295C542.118 77.7629 541.184 76.0295 537.451 75.4962C535.318 75.2295 537.184 74.9629 541.451 75.0962C549.184 75.2295 549.318 75.3629 552.384 80.5629ZM536.651 80.1629C536.251 81.2295 535.851 80.8295 535.851 79.3629C535.718 77.8962 536.118 77.0962 536.518 77.6295C536.918 78.0295 537.051 79.2295 536.651 80.1629ZM527.984 84.1629C527.584 86.0295 527.718 86.6962 528.918 86.0295C530.784 84.8295 535.718 86.2962 535.718 88.1629C535.718 88.9629 534.784 89.0962 533.451 88.5629C532.118 88.0295 529.984 87.6295 528.784 87.6295C526.384 87.7629 525.451 83.8962 527.318 82.1629C528.651 80.6962 528.784 81.0962 527.984 84.1629ZM189.984 88.6962C189.584 89.0962 188.384 89.2295 187.451 88.8295C186.384 88.4295 186.784 88.0295 188.251 88.0295C189.718 87.8962 190.518 88.2962 189.984 88.6962ZM537.051 91.0962C537.051 91.3629 535.851 91.8962 534.384 92.2962C532.918 92.6962 531.984 92.4295 532.518 91.7629C533.184 90.5629 537.051 90.0295 537.051 91.0962ZM513.851 94.4295C513.851 95.8962 513.318 96.6962 512.784 96.4295C511.318 95.4962 510.118 101.496 510.784 106.696C511.184 110.43 511.318 110.03 511.451 104.83C511.584 101.363 512.384 98.5629 513.184 98.5629C513.851 98.5629 514.118 99.0962 513.718 99.8962C513.318 100.563 513.584 101.23 514.251 101.23C515.051 101.23 515.718 103.363 515.718 105.896C515.718 108.43 516.384 110.563 517.051 110.563C517.851 110.563 518.384 112.963 518.384 115.896C518.384 121.096 518.518 121.23 523.184 121.23H528.118L527.451 114.563C527.051 110.83 527.318 107.896 527.984 107.896C528.651 107.896 528.784 108.43 528.384 109.23C527.984 109.896 528.251 110.563 528.918 110.563C530.784 110.563 530.784 108.83 528.918 106.963C527.184 105.23 528.784 98.5629 531.184 98.2962C532.251 98.2962 533.851 98.1629 534.784 98.0295C535.851 97.8962 536.518 101.63 537.051 110.963C537.451 118.03 537.584 123.896 537.318 123.896C537.051 123.896 535.584 123.23 534.118 122.43C532.118 121.363 531.051 121.363 529.851 122.563C528.784 123.63 528.918 123.896 530.784 123.23C533.318 122.163 533.984 124.563 531.451 125.763C530.518 126.163 531.184 126.163 533.051 125.763L536.384 124.963L532.651 127.496C530.651 128.963 529.451 130.563 529.984 131.096C530.651 131.63 529.451 133.496 527.451 134.963C525.451 136.563 523.584 139.496 523.184 141.363C522.384 146.296 518.518 153.363 518.384 150.163C518.384 148.43 517.184 147.896 513.184 147.896C510.251 147.896 507.584 148.696 507.184 149.496C506.784 150.43 506.918 146.163 507.318 139.896C507.718 133.63 508.118 128.43 508.251 128.296C508.251 128.296 510.651 127.763 513.451 127.23C517.984 126.296 518.384 126.563 518.518 129.363C518.518 132.296 518.651 132.43 519.584 129.896C520.251 128.43 520.118 126.963 519.584 126.83C518.918 126.563 518.384 125.23 518.384 123.763C518.384 121.496 517.318 121.23 509.051 121.23H499.584L500.518 116.43C501.184 112.963 500.918 111.23 499.584 110.296C498.251 109.363 498.651 109.23 501.051 109.763C505.984 110.83 508.118 106.963 505.984 101.23C504.518 97.4962 504.651 96.8295 506.918 95.2295C508.251 94.1629 509.851 93.6295 510.518 93.8962C511.051 94.2962 511.851 94.0295 512.384 93.2295C513.584 91.3629 513.851 91.4962 513.851 94.4295ZM530.118 94.2962C530.384 95.3629 528.918 95.8962 525.451 95.8962C520.384 95.8962 520.384 95.8962 523.718 94.0295C527.451 91.8962 529.318 92.0295 530.118 94.2962ZM457.451 99.6295C456.918 100.83 456.251 100.963 454.918 99.7629C453.851 98.8295 453.051 98.8295 453.051 99.4962C453.051 100.296 451.718 100.696 450.118 100.563C445.718 100.03 445.584 100.03 447.451 98.6962C450.384 96.9629 458.118 97.6295 457.451 99.6295ZM462.384 100.03C462.384 100.696 461.851 101.23 461.051 101.23C460.384 101.23 459.718 100.296 459.718 99.0962C459.718 98.0295 460.384 97.4962 461.051 97.8962C461.851 98.2962 462.384 99.2295 462.384 100.03ZM501.718 105.096C501.318 105.896 500.384 106.296 499.718 105.896C499.184 105.496 496.518 106.163 493.984 107.23C490.384 108.696 489.184 110.163 488.784 112.83C488.384 116.296 488.118 116.563 482.384 116.03C479.051 115.896 476.118 115.096 475.718 114.43C475.318 113.896 474.118 116.03 473.184 119.363C472.251 122.696 471.718 125.763 472.251 126.163C472.651 126.696 473.051 125.763 473.051 124.163C473.051 121.896 473.851 121.23 476.784 121.23C478.784 121.23 481.851 120.83 483.718 120.563C485.584 120.163 486.384 120.163 485.584 120.563C483.851 121.363 484.651 126.563 486.384 126.563C489.051 126.563 491.451 124.83 490.918 123.363C490.518 122.43 491.718 121.763 493.718 121.496C496.918 121.23 497.051 121.63 497.051 128.43C497.051 132.296 497.318 139.096 497.584 143.363C497.851 147.63 497.851 149.896 497.451 148.163C496.918 145.763 495.984 145.23 491.584 145.23C485.718 145.23 485.051 144.03 489.184 141.363C491.584 140.03 491.718 139.363 490.251 138.43C487.318 136.563 485.451 137.096 484.651 139.896C484.118 141.896 482.784 142.563 479.184 142.563C474.918 142.563 474.384 142.163 474.251 138.83L473.984 135.23L473.451 138.83C472.518 144.963 469.051 143.496 468.784 136.83L468.651 131.23L467.718 137.23C466.918 142.296 466.784 141.496 466.651 132.03C466.384 121.763 466.518 120.963 468.384 123.363C470.384 126.03 470.784 125.096 469.584 120.163C469.051 118.296 467.984 117.363 466.918 117.763C465.451 118.296 465.051 117.096 465.051 112.696C465.051 107.23 465.184 106.963 468.384 107.63C470.251 107.896 471.718 108.83 471.718 109.63C471.718 110.43 472.518 110.03 473.451 108.83C475.051 106.696 493.718 102.83 495.318 104.43C495.718 104.83 496.918 104.163 498.118 103.096C500.251 100.83 503.318 102.563 501.718 105.096ZM519.318 105.496C518.918 106.563 518.518 106.163 518.518 104.696C518.384 103.23 518.784 102.43 519.184 102.963C519.584 103.363 519.718 104.563 519.318 105.496ZM255.718 105.096C255.718 105.763 254.651 106.696 253.451 107.096C247.984 108.696 218.651 113.496 195.318 116.563C181.584 118.43 169.318 120.43 167.984 121.096C166.784 121.763 163.718 124.43 161.184 127.096L156.651 131.763L164.384 135.096C168.651 137.096 172.651 138.563 173.318 138.563C173.984 138.563 174.251 139.096 173.851 139.763C173.451 140.296 170.251 141.23 166.651 141.763C155.318 143.23 142.918 134.03 148.918 128.696C150.251 127.496 151.584 126.83 151.984 127.23C152.384 127.63 155.318 125.63 158.518 122.83C161.718 119.896 165.584 116.963 167.051 116.163C168.518 115.496 184.518 112.963 202.384 110.696C220.384 108.296 238.118 105.896 241.718 105.363C251.051 103.763 255.718 103.63 255.718 105.096ZM526.384 105.896C526.384 107.096 525.184 107.896 523.451 107.763C521.718 107.763 521.184 107.363 522.251 106.963C523.718 106.296 523.718 106.03 522.251 105.096C520.918 104.296 521.184 103.896 523.451 103.896C525.184 103.896 526.384 104.696 526.384 105.896ZM366.918 138.563C367.451 153.763 367.318 156.963 366.118 153.496C365.318 151.23 364.118 149.23 363.584 149.23C362.918 149.23 362.251 146.03 362.251 142.163C362.118 138.43 361.718 136.83 361.451 138.696C360.784 142.83 356.251 144.963 356.251 141.23C356.251 139.63 357.051 139.096 358.251 139.63C359.584 140.163 359.318 138.963 357.184 136.163C355.584 133.763 353.984 131.896 353.718 131.896C351.584 131.896 349.051 133.896 349.051 135.63C349.051 137.096 347.851 136.563 344.784 133.63C342.384 131.363 337.851 128.696 334.651 127.763C328.918 126.163 329.184 123.896 335.051 124.03H337.718L335.051 125.363C332.518 126.43 332.518 126.563 334.918 126.163C336.384 126.03 337.584 125.23 337.584 124.563C337.718 123.763 333.184 123.096 327.051 122.83C321.184 122.696 315.851 121.896 315.051 121.096C314.118 120.163 314.384 120.03 315.984 120.563C317.451 121.23 318.118 120.696 317.984 119.096C317.851 117.63 319.318 115.896 321.584 114.83C325.051 113.096 326.384 113.23 336.118 116.296C341.984 118.296 347.318 119.496 347.984 119.096C348.518 118.696 349.051 119.096 349.051 119.763C349.051 122.563 351.184 121.23 352.651 117.496L354.118 113.896L354.251 117.496C354.518 123.23 357.051 121.896 357.051 116.03C357.051 112.43 357.718 110.563 359.184 110.03C361.184 109.23 361.318 110.03 360.651 115.23C359.451 124.03 360.651 122.563 362.651 112.83L364.384 104.563L365.184 111.896C365.718 115.896 366.384 127.896 366.918 138.563ZM369.584 108.563C369.051 109.896 369.584 110.563 371.451 110.563C373.051 110.563 374.518 111.096 374.918 111.763C376.118 113.63 384.384 114.83 401.051 115.496C420.918 116.296 442.651 112.83 440.384 109.23C439.984 108.43 440.118 107.896 440.918 107.896C441.584 107.896 442.384 108.563 442.651 109.496C442.918 110.296 444.651 111.23 446.384 111.496C450.251 112.03 451.718 113.363 449.318 114.163C448.518 114.563 448.118 115.363 448.518 116.03C449.718 118.03 453.051 114.696 452.118 112.563C451.718 111.23 452.251 110.83 454.251 111.23C455.718 111.496 457.851 110.83 458.918 109.763C460.118 108.696 461.184 108.43 461.718 109.096C462.784 110.963 463.718 145.496 462.651 147.096C462.251 147.896 461.451 147.096 461.051 145.496L460.384 142.296L433.184 142.563C410.251 142.696 405.718 142.963 404.384 144.696C403.584 145.896 400.784 147.23 398.384 147.763C395.184 148.43 393.718 149.496 393.851 150.963C393.984 152.163 393.584 153.23 392.918 153.23C392.251 153.23 391.584 156.03 391.584 159.496C391.451 163.23 391.051 164.43 390.784 162.296C390.251 159.23 389.584 158.83 384.251 158.296C378.518 157.896 378.251 158.03 378.784 160.83C379.051 162.563 378.784 163.896 378.251 163.896C377.584 163.896 376.918 165.23 376.918 166.83C376.651 169.63 376.651 169.63 375.984 166.563C375.451 163.363 375.318 163.363 374.251 165.896C373.318 167.896 373.184 167.496 373.851 164.43C374.251 161.496 373.984 160.03 372.651 159.496C371.318 158.963 370.651 156.296 370.518 150.43C370.384 145.896 369.718 136.963 369.051 130.696C367.318 116.03 367.318 106.563 369.051 106.563C369.718 106.563 369.984 107.496 369.584 108.563ZM458.384 108.563C458.384 110.163 455.851 110.163 455.318 108.563C454.784 107.363 455.184 106.963 456.518 107.496C457.451 107.896 458.384 108.43 458.384 108.563ZM143.718 120.563C142.784 121.63 141.184 122.563 139.984 122.563C138.784 122.563 129.718 130.963 119.851 141.23L101.718 160.03L77.3176 159.896H52.7843L49.1843 156.163C46.5176 153.63 43.8509 147.63 40.2509 136.963C37.4509 128.296 35.5843 120.963 35.9843 120.43C38.2509 118.296 41.5843 123.23 45.5843 134.696C47.9843 141.63 50.9176 149.23 52.2509 151.496C54.7843 156.43 53.5843 156.296 79.9843 156.43L97.0509 156.563L113.851 138.963C129.318 122.563 130.918 121.23 135.451 121.23C138.118 121.23 141.318 120.563 142.384 119.896C145.184 118.03 145.584 118.296 143.718 120.563ZM203.718 125.096C203.718 125.763 202.518 126.563 201.051 126.963C198.384 127.63 197.584 126.563 199.318 124.83C200.518 123.496 203.718 123.763 203.718 125.096ZM325.451 124.83C323.718 125.096 320.784 125.096 318.784 124.83C316.651 124.563 318.118 124.296 321.718 124.296C325.451 124.296 327.051 124.563 325.451 124.83ZM170.251 130.03L173.184 134.963L168.784 134.03C162.651 132.83 161.451 131.096 164.384 127.896C165.718 126.43 166.918 125.23 167.184 125.23C167.318 125.23 168.784 127.363 170.251 130.03ZM205.051 133.23C205.051 133.896 204.518 134.563 203.718 134.563C203.051 134.563 202.384 133.896 202.384 133.23C202.384 132.43 203.051 131.896 203.718 131.896C204.518 131.896 205.051 132.43 205.051 133.23ZM27.3176 141.896C27.3176 142.963 26.7843 143.896 26.1176 143.896C24.7843 143.896 24.6509 142.03 25.9843 140.83C27.1843 139.496 27.3176 139.63 27.3176 141.896ZM22.1176 144.563C21.7176 144.963 20.9176 144.296 20.5176 142.963C19.7176 141.096 19.8509 140.963 21.1843 142.163C22.1176 143.096 22.5176 144.163 22.1176 144.563ZM502.384 146.83C502.384 150.163 501.984 150.696 501.051 149.23C499.318 146.563 499.318 142.563 501.051 142.563C501.851 142.563 502.384 144.563 502.384 146.83ZM164.651 144.696C164.251 145.096 163.051 145.23 162.118 144.83C161.051 144.43 161.451 144.03 162.918 144.03C164.384 143.896 165.184 144.296 164.651 144.696ZM360.784 156.563C360.384 156.963 359.584 156.296 359.184 154.963C358.384 153.096 358.518 152.963 359.851 154.163C360.784 155.096 361.184 156.163 360.784 156.563ZM467.318 162.163C467.051 164.296 466.784 162.83 466.784 159.23C466.784 155.496 467.051 153.896 467.318 155.496C467.584 157.23 467.584 160.163 467.318 162.163ZM491.718 154.563C491.718 155.23 491.184 155.896 490.384 155.896C489.718 155.896 489.051 155.23 489.051 154.563C489.051 153.763 489.718 153.23 490.384 153.23C491.184 153.23 491.718 153.763 491.718 154.563ZM514.384 154.563C514.384 155.23 513.851 155.896 513.051 155.896C512.384 155.896 511.718 155.23 511.718 154.563C511.718 153.763 512.384 153.23 513.051 153.23C513.851 153.23 514.384 153.763 514.384 154.563ZM548.118 154.163C548.918 155.496 546.651 179.23 545.184 184.563C544.518 186.963 544.251 182.03 544.651 172.163C545.184 154.563 544.651 153.363 539.051 159.363C535.584 163.096 534.518 170.963 537.051 172.563C538.918 173.763 538.651 177.496 536.384 180.43C534.518 182.83 534.384 182.163 534.384 172.963C534.384 163.23 534.651 162.563 538.918 158.03C543.184 153.496 546.784 152.03 548.118 154.163ZM458.251 161.363C458.384 159.63 458.784 158.43 459.184 158.963C460.784 160.43 458.384 166.563 456.251 166.563C454.784 166.563 454.384 165.896 454.918 164.43C455.318 163.23 455.718 161.363 455.851 160.163C455.984 158.83 456.384 159.23 457.051 161.23L458.118 164.563L458.251 161.363ZM463.318 162.83C462.918 163.763 462.651 163.096 462.651 161.23C462.651 159.363 462.918 158.696 463.318 159.496C463.584 160.43 463.584 162.03 463.318 162.83ZM558.384 162.83C559.851 165.23 561.051 168.163 561.051 169.23C560.918 170.296 560.118 169.23 559.051 166.83C556.784 161.763 556.251 161.63 552.118 165.496C550.384 167.096 549.051 167.763 549.051 166.963C549.051 165.496 554.118 158.563 555.184 158.563C555.451 158.563 556.918 160.563 558.384 162.83ZM325.051 170.83C325.051 182.563 321.584 207.496 320.118 206.163C319.718 205.763 319.584 196.43 319.584 185.363C319.851 162.43 319.584 161.763 310.384 170.03C306.518 173.496 305.051 175.896 305.051 178.696C305.051 181.896 305.584 182.563 308.251 182.563C312.518 182.563 313.451 184.296 312.518 190.03C311.851 193.363 310.918 194.563 309.051 194.563C307.584 194.563 306.384 195.496 306.384 196.563C306.384 197.63 305.851 198.563 305.184 198.563C304.518 198.563 303.718 193.896 303.451 188.163C302.918 179.363 303.318 177.23 305.851 173.496C309.718 167.496 316.784 162.563 321.318 162.563C325.051 162.563 325.051 162.696 325.051 170.83ZM452.384 165.096C451.584 165.896 447.051 166.83 442.118 167.363C434.251 168.163 433.051 168.03 433.051 166.03C433.051 164.296 434.651 163.896 443.318 163.896C449.851 163.896 453.051 164.43 452.384 165.096ZM371.318 168.163C370.918 169.23 370.518 168.83 370.518 167.363C370.384 165.896 370.784 165.096 371.184 165.63C371.584 166.03 371.718 167.23 371.318 168.163ZM490.384 170.03C490.384 171.096 489.851 171.896 489.051 171.896C488.384 171.896 487.718 170.696 487.718 169.096C487.718 167.63 488.384 166.83 489.051 167.23C489.851 167.63 490.384 168.963 490.384 170.03ZM427.051 169.363C427.851 169.363 426.918 170.03 425.051 170.563C420.384 172.03 411.718 172.163 411.718 170.696C411.718 168.296 416.784 167.896 427.051 169.363ZM473.718 178.296C473.318 178.696 473.051 177.896 473.051 176.563C473.051 174.563 472.784 174.563 471.051 175.896C469.318 177.363 469.318 177.896 470.651 178.696C471.984 179.63 471.851 179.896 470.118 179.896C468.118 179.896 467.718 178.83 467.851 174.163C467.984 171.096 468.384 169.896 468.651 171.496C469.451 175.763 471.718 175.363 471.851 170.83C471.984 167.763 472.251 168.03 473.184 172.43C473.851 175.23 474.118 177.896 473.718 178.296ZM342.651 176.03C346.651 182.43 351.051 197.63 349.851 200.696C349.051 202.696 331.184 211.896 328.118 211.896C324.118 211.896 325.584 209.096 331.984 204.43C335.851 201.763 340.918 197.63 343.318 195.496C347.318 191.63 347.451 191.496 345.718 186.563C343.051 178.963 339.851 173.23 338.251 173.23C337.451 173.23 334.784 174.83 332.251 176.696C329.718 178.696 327.184 179.763 326.651 179.23C325.451 178.03 335.718 168.963 337.584 169.63C338.384 169.896 340.651 172.696 342.651 176.03ZM402.918 170.03C409.051 170.963 411.184 173.496 406.918 175.096C403.318 176.43 400.784 176.03 401.851 174.163C402.651 172.83 402.384 172.83 400.918 174.163C399.984 175.096 397.451 175.896 395.451 175.896C393.051 175.896 391.718 176.563 391.718 177.896C391.718 178.963 391.318 179.763 390.784 179.63C389.051 179.23 382.384 182.83 382.384 184.163C382.384 184.696 381.584 185.23 380.518 185.23C379.184 185.23 378.651 183.763 378.784 180.163C379.051 175.23 379.051 175.23 385.184 174.83C390.651 174.43 391.318 174.03 390.784 171.763C389.984 168.963 392.118 168.563 402.918 170.03ZM495.718 170.43C495.718 172.03 493.051 173.763 492.118 172.83C491.184 171.896 492.918 169.23 494.518 169.23C495.184 169.23 495.718 169.763 495.718 170.43ZM464.651 175.496C464.251 176.83 463.984 176.03 463.984 173.896C463.984 171.63 464.251 170.696 464.651 171.496C464.918 172.43 464.918 174.296 464.651 175.496ZM456.384 173.23C456.784 173.896 456.251 174.563 455.051 174.563C453.851 174.563 453.318 173.896 453.718 173.23C454.118 172.43 454.784 171.896 455.051 171.896C455.318 171.896 455.984 172.43 456.384 173.23ZM481.451 176.83C480.518 177.096 478.918 177.096 478.118 176.83C477.184 176.43 477.851 176.163 479.718 176.163C481.584 176.163 482.251 176.43 481.451 176.83ZM563.718 181.23C563.718 184.296 562.651 185.896 558.784 188.43C553.051 192.03 547.718 193.896 547.718 192.296C547.718 191.096 561.184 177.763 562.784 177.363C563.318 177.363 563.718 178.963 563.718 181.23ZM240.784 183.363C240.518 183.496 237.718 184.03 234.518 184.43L228.651 185.096L231.718 181.896C234.518 178.963 234.918 178.83 237.984 180.83C239.718 182.03 240.918 183.096 240.784 183.363ZM465.051 179.896C465.051 180.563 463.984 181.23 462.784 181.23C460.784 181.23 460.651 180.963 462.384 179.896C464.918 178.296 465.051 178.296 465.051 179.896ZM535.451 186.163C539.984 191.363 543.051 195.896 541.851 195.896C541.451 195.896 538.251 194.563 534.784 192.963C531.184 191.23 528.251 189.896 527.984 189.763C527.318 189.496 529.451 181.23 530.118 181.23C530.651 181.23 533.051 183.496 535.451 186.163ZM562.251 197.096C563.051 199.63 563.584 204.03 563.584 207.096L563.451 212.563L562.384 206.563C561.718 203.23 560.651 198.83 559.851 196.83C559.051 194.696 558.384 192.43 558.384 191.496C558.384 188.963 560.518 192.163 562.251 197.096ZM310.118 207.496C313.184 210.03 315.718 212.963 315.718 214.03C315.718 216.563 315.051 216.43 305.718 212.563C301.318 210.83 297.051 209.23 296.118 209.23C295.051 209.23 294.384 212.83 293.984 220.163C293.718 226.296 293.584 224.296 293.718 215.763C293.851 207.23 294.384 199.63 294.918 198.696C295.984 197.096 299.584 199.096 310.118 207.496ZM552.918 210.563C555.184 215.763 557.051 220.696 557.051 221.63C557.051 222.43 557.984 222.03 559.051 220.696C561.984 216.83 561.451 220.83 558.384 226.563C556.784 229.63 555.718 230.563 555.318 229.23C554.518 226.03 547.984 206.163 547.051 203.496C546.518 202.296 546.651 201.23 547.451 201.23C548.118 201.23 550.518 205.496 552.918 210.563ZM543.051 208.83C542.651 212.43 541.184 219.363 539.984 224.43C537.984 233.23 537.984 233.63 540.384 235.496C544.651 238.43 546.784 236.963 549.318 229.23L551.718 221.896L551.051 227.763C549.718 238.296 546.384 240.963 539.984 236.43C534.518 232.563 533.851 229.763 536.918 221.496C538.384 217.23 540.251 211.363 541.051 208.163C542.918 200.563 544.251 200.963 543.051 208.83ZM457.051 211.23C457.051 213.096 457.451 214.696 458.118 214.696C458.651 214.83 465.851 215.23 474.118 215.763L489.184 216.563L492.251 225.23C493.851 230.03 495.718 234.963 496.384 236.296C497.451 238.696 496.251 238.83 465.584 237.63C448.118 237.096 415.584 236.563 393.318 236.563C357.051 236.563 353.051 236.296 353.051 234.43C353.051 233.23 353.851 231.63 354.784 230.83C355.718 230.03 357.851 226.43 359.584 222.83L362.518 216.43L404.784 212.296C459.718 206.963 457.051 207.096 457.051 211.23ZM348.651 219.63C350.518 224.696 350.651 226.563 349.184 233.763C347.584 241.896 340.251 258.563 338.251 258.563C337.718 258.563 336.251 255.363 334.918 251.496C333.718 247.763 330.918 240.696 328.918 236.03C326.784 231.363 325.051 225.896 325.051 224.03C325.051 220.696 325.184 220.696 327.984 225.23C329.584 227.763 333.451 234.563 336.518 240.296L341.984 250.83L344.251 245.363C349.051 233.096 349.318 228.563 345.718 219.896C343.851 215.496 342.384 211.23 342.384 210.296C342.518 207.63 346.118 212.963 348.651 219.63ZM536.651 218.163C535.184 219.496 529.051 214.563 529.051 212.03C529.051 209.896 529.584 210.03 533.184 213.363C535.584 215.496 537.051 217.63 536.651 218.163ZM221.451 212.83C220.518 213.096 218.918 213.096 218.118 212.83C217.184 212.43 217.851 212.163 219.718 212.163C221.584 212.163 222.251 212.43 221.451 212.83ZM561.984 216.163C561.584 217.23 561.184 216.83 561.184 215.363C561.051 213.896 561.451 213.096 561.851 213.63C562.251 214.03 562.384 215.23 561.984 216.163ZM200.784 222.163C199.451 222.43 197.318 222.43 196.118 222.163C194.784 221.763 195.851 221.496 198.384 221.496C200.918 221.496 201.984 221.763 200.784 222.163ZM20.9176 226.163L28.3843 227.896L20.3843 227.096C9.7176 226.296 5.7176 225.096 7.85093 223.896C8.78427 223.23 10.3843 223.096 11.4509 223.63C12.6509 224.03 16.9176 225.096 20.9176 226.163ZM318.918 228.83C318.384 230.963 317.851 232.83 317.584 233.096C317.318 233.363 317.718 234.43 318.518 235.496C319.718 236.83 319.584 237.896 317.984 239.63C316.784 240.963 314.518 246.163 313.051 251.096C311.451 256.163 309.851 261.096 309.451 262.03C309.051 263.23 310.384 264.563 313.584 265.896C322.118 269.496 323.184 268.83 326.384 258.83C331.584 243.23 333.718 244.163 329.051 260.03L326.251 269.23H320.251C315.184 269.23 313.451 268.43 308.784 264.03L303.184 258.83L307.984 248.43C310.518 242.563 313.451 235.496 314.384 232.563C316.518 226.03 316.918 225.23 318.518 225.23C319.184 225.23 319.318 226.83 318.918 228.83ZM34.7843 228.83C33.8509 229.096 31.9843 229.096 30.7843 228.83C29.4509 228.43 30.2509 228.163 32.3843 228.163C34.6509 228.163 35.5843 228.43 34.7843 228.83ZM301.184 238.563C309.318 241.363 310.384 244.963 302.518 243.23C297.318 242.163 294.384 239.23 294.518 235.496C294.651 233.496 294.918 233.23 295.318 234.696C295.584 235.896 298.251 237.63 301.184 238.563ZM303.051 235.896C303.451 236.563 302.918 237.23 301.718 237.23C300.518 237.23 299.984 236.563 300.384 235.896C300.784 235.096 301.451 234.563 301.718 234.563C301.984 234.563 302.651 235.096 303.051 235.896ZM197.718 237.896C204.518 237.896 205.718 238.296 205.318 240.163C205.051 241.496 205.584 243.763 206.384 245.23C207.584 247.496 209.184 247.896 216.784 247.896C221.718 247.896 228.118 248.296 231.051 248.83C234.918 249.496 220.784 251.496 180.384 255.896C149.584 259.363 119.851 262.563 114.384 262.963L104.251 263.763L110.384 257.496C113.718 254.03 118.251 247.763 120.384 243.363L124.384 235.63L157.051 236.696C175.051 237.23 193.318 237.763 197.718 237.896Z" fill="black"/>
<path d="M508.518 96.5629C507.318 100.03 507.584 100.83 509.184 98.1629C509.984 96.8295 510.384 95.3629 509.984 95.0962C509.718 94.6962 509.051 95.3629 508.518 96.5629Z" fill="black"/>
<path d="M531.851 99.7629C530.251 100.83 530.251 101.63 531.318 104.163L532.918 107.23V103.63C533.051 101.763 533.851 99.7629 534.784 99.4962C535.584 99.0962 535.851 98.6962 535.051 98.6962C534.384 98.6962 532.918 99.0962 531.851 99.7629Z" fill="black"/>
<path d="M521.851 136.563C520.651 140.03 520.918 140.83 522.518 138.163C523.318 136.83 523.718 135.363 523.318 135.096C523.051 134.696 522.384 135.363 521.851 136.563Z" fill="black"/>
<path d="M520.118 144.03C519.851 147.096 520.518 147.363 521.451 144.563C521.984 143.496 521.851 142.43 521.318 142.03C520.784 141.63 520.118 142.563 520.118 144.03Z" fill="black"/>
<path d="M478.118 108.83C479.718 109.096 482.384 109.096 484.118 108.83C485.718 108.563 484.384 108.296 481.051 108.296C477.718 108.296 476.384 108.563 478.118 108.83Z" fill="black"/>
<path d="M148.918 130.163C147.184 132.296 147.318 132.43 149.451 130.696C150.651 129.763 151.718 128.696 151.718 128.43C151.718 127.363 150.651 128.03 148.918 130.163Z" fill="black"/>
<path d="M363.184 120.563C362.784 121.763 362.384 123.496 362.518 124.296C362.518 125.23 363.184 124.43 363.851 122.696C364.518 120.963 364.918 119.23 364.518 118.963C364.251 118.696 363.718 119.363 363.184 120.563Z" fill="black"/>
<path d="M328.384 121.23C328.784 121.896 329.984 122.163 331.051 121.63C333.851 120.696 333.584 119.896 330.251 119.896C328.784 119.896 327.851 120.43 328.384 121.23Z" fill="black"/>
<path d="M347.718 127.63C347.718 128.963 347.051 130.696 346.251 131.496C345.318 132.43 345.318 133.23 346.118 133.763C346.784 134.163 348.118 133.63 349.051 132.563C349.984 131.496 350.251 130.563 349.851 130.563C349.318 130.563 349.584 129.363 350.384 127.896C351.584 125.763 351.451 125.23 349.718 125.23C348.651 125.23 347.718 126.296 347.718 127.63Z" fill="black"/>
<path d="M361.184 130.03C361.184 131.496 361.584 131.896 361.984 130.83C362.384 129.896 362.251 128.696 361.851 128.296C361.451 127.763 361.051 128.563 361.184 130.03Z" fill="black"/>
<path d="M433.051 118.563C433.051 119.363 433.984 119.896 435.051 119.896C436.118 119.896 437.051 119.63 437.051 119.363C437.051 119.096 436.118 118.563 435.051 118.03C433.984 117.63 433.051 117.896 433.051 118.563Z" fill="black"/>
<path d="M454.118 121.363C454.918 122.296 455.718 125.096 455.718 127.496C455.718 129.896 456.384 131.896 457.184 131.896C457.984 131.896 458.251 130.963 457.851 129.763C457.451 128.563 457.051 126.296 457.051 124.563C457.051 122.83 455.984 121.096 454.784 120.563C452.784 119.896 452.651 120.03 454.118 121.363Z" fill="black"/>
<path d="M459.984 123.896C459.984 125.763 460.251 126.43 460.651 125.496C460.918 124.696 460.918 123.096 460.651 122.163C460.251 121.363 459.984 122.03 459.984 123.896Z" fill="black"/>
<path d="M375.851 160.696C375.851 162.163 376.251 162.563 376.651 161.496C377.051 160.563 376.918 159.363 376.518 158.963C376.118 158.43 375.718 159.23 375.851 160.696Z" fill="black"/>
<path d="M426.118 3.49623C427.718 3.76289 430.118 3.76289 431.451 3.49623C432.651 3.09623 431.318 2.82956 428.384 2.96289C425.451 2.96289 424.384 3.22956 426.118 3.49623Z" fill="black"/>
<path d="M436.118 4.82954C437.318 5.09621 439.184 5.09621 440.118 4.82954C440.918 4.42954 439.984 4.16287 437.718 4.16287C435.584 4.16287 434.784 4.42954 436.118 4.82954Z" fill="black"/>
<path d="M338.118 22.1629C339.051 22.5629 340.251 22.4296 340.651 22.0296C341.184 21.6296 340.384 21.2296 338.918 21.3629C337.451 21.3629 337.051 21.7629 338.118 22.1629Z" fill="black"/>
<path d="M373.184 34.1629C365.718 43.7629 362.384 49.3629 367.051 44.8296C371.051 40.8296 382.651 24.9629 381.984 24.4296C381.584 24.0296 377.718 28.4296 373.184 34.1629Z" fill="black"/>
<path d="M276.784 27.4962C277.718 27.8962 278.918 27.7629 279.318 27.3629C279.851 26.9629 279.051 26.5629 277.584 26.6962C276.118 26.6962 275.718 27.0962 276.784 27.4962Z" fill="black"/>
<path d="M279.051 30.5629C279.851 31.8962 277.451 32.5629 269.051 33.7629C263.451 34.4296 261.584 34.9629 256.384 37.2296C254.251 38.1629 251.851 39.0962 251.184 39.0962C250.384 39.2296 247.451 45.2296 244.518 52.4296L239.051 65.6296L227.318 65.3629C220.784 65.2296 214.784 65.6296 213.984 66.4296C213.051 67.0962 206.918 68.1629 200.384 68.6962C179.851 70.2962 184.118 71.2296 211.451 71.2296C243.451 71.0962 265.584 70.4296 261.051 69.6296C259.184 69.2296 257.318 68.5629 256.784 68.0296C256.118 67.4962 258.118 59.7629 261.184 50.8296L266.651 34.5629H272.384C275.851 34.5629 279.051 33.7629 280.251 32.4296C282.918 29.8962 282.918 29.2296 280.251 29.2296C279.184 29.2296 278.651 29.7629 279.051 30.5629Z" fill="black"/>
<path d="M165.051 53.2295C163.851 54.0295 163.718 54.5629 164.651 54.5629C165.451 54.5629 166.651 53.8962 167.051 53.2295C168.118 51.6295 167.584 51.6295 165.051 53.2295Z" fill="black"/>
<path d="M134.384 56.1629C129.051 57.6295 124.918 60.8295 128.384 60.8295C129.451 60.8295 130.384 60.2962 130.384 59.8962C130.384 59.3629 133.051 58.1629 136.384 57.3629C139.718 56.5629 142.384 55.6295 142.384 55.2295C142.384 54.2962 139.851 54.5629 134.384 56.1629Z" fill="black"/>
<path d="M52.9176 85.6295C43.5843 88.8295 31.4509 96.0295 33.9843 96.8295C34.7843 97.0962 35.1843 98.5628 34.7843 99.8962C33.9843 102.963 35.1843 103.363 37.7176 100.83C38.6509 99.7628 41.3176 99.0962 43.5843 99.2295C45.7176 99.3628 47.3176 98.9628 47.0509 98.5628C46.3843 97.4962 55.3176 88.8295 61.0509 84.9628C65.5843 81.8962 63.3176 82.0295 52.9176 85.6295Z" fill="black"/>
<path d="M29.0509 122.163C29.0509 122.83 29.7176 124.163 30.3843 125.23C31.4509 126.83 31.7176 126.696 31.7176 124.163C31.7176 122.563 31.1843 121.23 30.3843 121.23C29.7176 121.23 29.0509 121.63 29.0509 122.163Z" fill="black"/>
<path d="M27.7176 129.096C27.7176 129.896 28.2509 130.696 28.7843 131.096C29.4509 131.496 29.9843 130.963 29.9843 129.896C29.9843 128.83 29.4509 127.896 28.7843 127.896C28.2509 127.896 27.7176 128.43 27.7176 129.096Z" fill="black"/>
<path d="M0.250933 166.163C0.650933 168.296 1.3176 172.163 1.85093 174.963C2.5176 179.23 7.18427 184.83 8.65093 183.363C10.1176 182.03 6.25093 166.03 4.1176 164.43C0.5176 161.763 -0.549067 162.163 0.250933 166.163Z" fill="black"/>
<path d="M2.65093 185.496C3.05093 188.696 6.38426 192.03 7.98426 191.096C10.2509 189.63 8.9176 185.63 5.58426 184.163C2.5176 182.696 2.25093 182.83 2.65093 185.496Z" fill="black"/>
</svg>
