<svg width="100" height="100" viewBox="0 0 100 100" fill="none" xmlns="http://www.w3.org/2000/svg">
<path d="M15.4297 0.214844C14.3164 0.664062 13.6133 1.77734 13.6328 3.06641L13.6523 3.90625H11.2695C8.86719 3.90625 7.73438 4.12109 6.42578 4.80469C4.57031 5.74219 2.96875 7.69531 2.34375 9.72656C1.95312 10.957 1.95312 11.6406 1.95312 51.8359C1.95312 85.8008 2.01172 92.8516 2.22656 93.6719C3.04688 96.7969 5.64453 99.1992 8.78906 99.8047C9.45312 99.9219 22.1875 100 45 100H80.1758L89.1211 91.0547L98.0469 82.1289V46.5625C98.0469 11.6406 98.0469 10.957 97.6562 9.72656C97.0312 7.69531 95.4297 5.74219 93.5742 4.80469C92.2656 4.12109 91.1328 3.90625 88.7305 3.90625H86.3477V3.06641C86.3672 1.97266 86.0938 1.34766 85.3711 0.722656C83.418 -0.917969 80.6641 0.429688 80.6641 3.02734V3.90625H75.1367H69.6094V2.94922C69.6484 1.30859 68.418 0.0976562 66.7383 0.0976562C64.9805 0.0976562 63.8672 1.28906 63.8672 3.125V3.90625L58.3594 3.86719L52.832 3.80859L52.8906 3.08594C53.0273 1.54297 51.582 0 50 0C48.418 0 46.9727 1.54297 47.1094 3.08594L47.168 3.80859L41.6406 3.86719L36.1328 3.90625V3.125C36.1328 1.28906 35.0195 0.0976562 33.2617 0.0976562C31.582 0.0976562 30.3516 1.30859 30.3906 2.94922V3.90625H24.8633H19.3359V2.94922C19.3359 0.878906 17.3242 -0.527344 15.4297 0.214844ZM27.1484 13.6133C27.1289 15.5273 27.0508 17.4805 26.9727 17.9492C26.6211 19.707 25.4492 20.5859 23.4375 20.5859C22.7344 20.5859 22.0703 20.5273 21.9727 20.4688C21.8555 20.4102 21.7969 19.9414 21.8359 19.4336C21.9141 18.5156 21.9141 18.5156 22.5391 18.6328C22.8906 18.7109 23.457 18.6523 23.7891 18.5352C24.668 18.2422 24.8047 17.5195 24.8047 13.5156V10.1562H25.9766H27.1484V13.6133ZM33.9844 13.2422C35.1758 13.8281 35.4102 14.5312 35.5078 17.7148L35.6055 20.5078H34.5703C33.7305 20.5078 33.5352 20.4492 33.457 20.1172C33.3594 19.7461 33.3398 19.7461 32.793 20.1562C31.9922 20.7422 30.5664 20.7422 29.7461 20.1562C28.5938 19.3359 28.4766 17.6367 29.5312 16.6016C30.0781 16.0547 30.5273 15.8789 32.3828 15.5078C33.2031 15.332 33.2031 15.332 32.9102 14.8828C32.5391 14.375 31.4258 14.2969 30.3906 14.7266L29.7461 15L29.5312 14.2969C29.4141 13.9062 29.3359 13.5547 29.3945 13.5156C29.4336 13.4766 29.8047 13.3203 30.2148 13.1836C31.2891 12.793 33.1641 12.8125 33.9844 13.2422ZM43.7695 13.3984C44.5508 14.1016 44.7266 14.8633 44.7266 17.7734V20.5273L43.6133 20.4688L42.4805 20.4102L42.3828 17.832C42.3242 16.4062 42.207 15.1758 42.0898 15.0781C41.6016 14.6094 41.0156 14.6289 40.5273 15.1172C40.0586 15.5859 40.0391 15.7031 40.0391 18.0664V20.5078H38.8672H37.6953V16.7969V13.0859H38.6719C39.5117 13.0859 39.6484 13.1445 39.6484 13.4766C39.6484 13.9648 39.668 13.9648 40.5664 13.3594C41.1914 12.9297 41.4648 12.8711 42.3242 12.9297C42.9688 12.9883 43.5156 13.1641 43.7695 13.3984ZM61.2695 13.3984C62.2461 14.1016 62.4609 14.8633 62.5391 17.8125L62.6172 20.5078H61.582C60.8008 20.5078 60.5469 20.4297 60.5469 20.2148C60.5469 19.8438 60.5859 19.8438 59.4727 20.332C58.2812 20.8594 57.3828 20.7031 56.4844 19.8047C55.8594 19.1797 55.8203 19.0625 55.8984 18.125C56.0547 16.582 56.9727 15.918 59.4336 15.5273C60.2344 15.4102 60.3906 14.9805 59.7852 14.6484C59.2773 14.3945 58.5352 14.3945 57.5977 14.6875C56.6992 14.9414 56.6211 14.8828 56.582 14.043C56.543 13.4961 56.6211 13.3984 57.2266 13.1641C58.2617 12.7734 60.5859 12.8906 61.2695 13.3984ZM69.3359 13.9648C69.3359 15.0391 69.3359 15.0391 68.7305 15.0391C67.3438 15.0391 66.9922 15.7617 66.9922 18.5742V20.5078H65.918H64.8438V18.6914C64.8438 17.7148 64.7852 16.0352 64.707 14.9805L64.5898 13.0859H65.6836C66.7773 13.0859 66.7969 13.0859 66.7969 13.6523V14.2188L67.4609 13.5547C67.9297 13.0859 68.3008 12.8906 68.7305 12.8906C69.3359 12.8906 69.3359 12.8906 69.3359 13.9648ZM49.4141 15.4883C49.4141 17.3438 49.4922 17.9883 49.7266 18.3203C50.0977 18.8672 50.8398 18.8672 51.3672 18.3203C51.7188 17.9492 51.7578 17.6367 51.7578 15.4883V13.0859H52.9297H54.1016V16.7969V20.5078H53.125C52.3047 20.5078 52.1484 20.4492 52.1484 20.1562C52.1484 19.5703 51.9141 19.4922 51.4453 19.9414C50.625 20.7031 49.1016 20.8203 48.1055 20.1758C47.2656 19.6289 47.0703 18.7891 47.0703 15.8398V13.0859H48.2422H49.4141V15.4883ZM73.3008 14.1016C73.457 14.668 73.8086 15.8008 74.043 16.6016L74.4922 18.0664L75.0977 15.625L75.7031 13.1836L76.9141 13.125C77.5781 13.0859 78.125 13.1055 78.125 13.1641C78.125 13.2227 77.6367 14.6484 77.0312 16.3477C75.7227 20 74.8828 21.7383 73.9844 22.5977C73.3008 23.2617 71.9141 23.9453 71.6992 23.7305C71.6406 23.6523 71.4844 23.2422 71.3672 22.793C71.1719 21.9727 71.1719 21.9727 71.8359 21.582C72.2266 21.3672 72.6758 20.9766 72.8906 20.7031C73.2422 20.2148 73.2422 20.2148 71.875 16.7969C71.1328 14.9219 70.5078 13.3203 70.5078 13.2422C70.5078 13.1641 71.0547 13.0859 71.7383 13.0859H72.9688L73.3008 14.1016ZM93.5547 53.8477V80.1562L93.0273 80.7031L92.5 81.25H88.3594C83.4766 81.25 82.7148 81.4258 81.1914 82.9102C79.5117 84.5703 79.3945 85 79.3359 90.0391L79.2773 94.4336L78.75 94.9805L78.2422 95.5078H44.4141C19.9805 95.5078 10.2734 95.4492 9.53125 95.293C8.26172 95.0195 6.99219 93.8672 6.66016 92.6758C6.50391 92.1094 6.44531 82.6758 6.44531 59.707V27.5391H50H93.5547V53.8477Z" fill="black"/>
<path d="M31.6797 17.2265C31.1523 17.4804 30.9179 18.2617 31.25 18.6523C31.582 19.0625 32.4804 19.0234 32.8711 18.5937C33.0664 18.3984 33.2031 17.9492 33.2031 17.6172C33.2031 17.0703 33.1445 16.9922 32.6758 17.0117C32.3633 17.0117 31.9336 17.1093 31.6797 17.2265Z" fill="black"/>
<path d="M58.7891 17.2461C58.418 17.4414 58.3008 17.6367 58.3008 18.1641C58.3008 18.7891 58.3594 18.8477 58.8867 18.9063C59.6875 18.9844 60.1367 18.5938 60.293 17.7149C60.3906 17.0117 60.3906 16.9922 59.8438 16.9922C59.5313 16.9922 59.0625 17.1094 58.7891 17.2461Z" fill="black"/>
<path d="M46.6797 36.7969V40.0195L45.5664 40.332C40.1758 41.8164 36.6992 45.0195 35.6445 49.4336C35.0781 51.8359 35.3125 54.3359 36.3281 56.543C37.793 59.7852 40.9961 62.0508 47.5586 64.4531C51.0547 65.7422 52.3242 66.4258 53.3984 67.5781C54.7656 69.043 55 70.6836 54.0625 72.207C53.1641 73.6914 51.2109 74.4141 48.0859 74.4141C44.6484 74.4141 41.7188 73.75 38.5547 72.2656L36.9531 71.5234L35.957 75.3906C35.4102 77.5 34.9609 79.2773 34.9609 79.3555C34.9609 79.5312 37.1094 80.4688 38.6719 80.957C40.6445 81.5625 42.5781 81.9727 44.2383 82.1289C46.7383 82.3438 46.4844 81.9531 46.4844 85.6445V88.8672L49.7656 88.8281L53.0273 88.7695L53.0859 85.332L53.125 81.8945L54.3945 81.582C56.0156 81.1719 57.7344 80.4883 59.1211 79.668C60.6836 78.75 62.8516 76.5234 63.6328 75.0586C65.918 70.7227 65.332 64.8242 62.2852 61.7383C60.1758 59.5898 58.2227 58.457 53.125 56.4453C48.4961 54.6094 46.7188 53.5352 45.957 52.0703C45.5273 51.25 45.7031 49.8047 46.3477 48.9453C48.1055 46.6602 53.7891 46.5234 59.2578 48.6523C60.332 49.0625 61.2305 49.375 61.2305 49.3555C61.3086 49.2188 63.0859 42.0508 63.0859 41.875C63.0859 41.7383 62.9297 41.6016 62.7539 41.543C62.5586 41.4844 61.7383 41.2109 60.9375 40.918C59.1602 40.293 58.1445 40.0781 55.4688 39.7656L53.418 39.5312L53.3594 36.5625L53.3008 33.5938H50H46.6797V36.7969Z" fill="black"/>
</svg>
