<svg width="65" height="69" viewBox="0 0 65 69" fill="none" xmlns="http://www.w3.org/2000/svg">
<mask id="mask0_108_45" style="mask-type:alpha" maskUnits="userSpaceOnUse" x="0" y="0" width="30" height="69">
<rect width="30" height="69" fill="#D9D9D9"/>
</mask>
<g mask="url(#mask0_108_45)">
<path fill-rule="evenodd" clip-rule="evenodd" d="M28.504 0.000159031C13.3564 -0.0448417 9.54374 11.7389 9.55673 18.7021C9.58484 33.7167 17.2958 45.2125 28.687 63.9499C39.8155 45.0118 47.3119 33.7462 47.3119 18.758C47.3119 11.3592 43.6515 0.0451597 28.504 0.000159031V0.000159031ZM28.321 9.48171C33.5302 9.48106 37.7535 13.6899 37.754 18.8824C37.7535 24.0749 33.5302 28.2838 28.321 28.2831C23.1126 28.2826 18.8905 24.0741 18.89 18.8824C18.8905 13.6908 23.1126 9.48221 28.321 9.48171Z" fill="#FF8906"/>
<path d="M39.6968 54.3022C45.2403 55.0015 49.7377 56.1957 52.4424 57.6864C55.147 59.1771 55.8962 60.8746 54.5654 62.4971C53.2347 64.1196 49.9042 65.5694 45.1268 66.6059C40.3494 67.6424 34.4126 68.2031 28.3023 68.195C22.192 68.1869 16.2756 67.6104 11.5357 66.5613C6.79581 65.5121 3.51751 64.0535 2.24511 62.4275C0.972716 60.8016 1.7828 59.1061 4.54086 57.6227C7.29893 56.1393 11.839 54.9571 17.4073 54.2725" stroke="#FF8906" stroke-width="1.61804" stroke-linecap="round"/>
</g>
<mask id="mask1_108_45" style="mask-type:alpha" maskUnits="userSpaceOnUse" x="34" y="0" width="31" height="59">
<rect x="34" width="31" height="59" fill="#D9D9D9"/>
</mask>
<g mask="url(#mask1_108_45)">
<path d="M61.65 19.3367V53.1569C61.65 56.9066 59.4952 59.9725 56.8597 59.9725H12.7925C10.1571 59.9725 8.00224 56.9066 8.00224 53.1569L8.00224 19.3367C8.90084 20.7425 9.91791 21.9765 11.0266 23.0419C15.9958 27.8538 21.0252 32.6689 25.9049 37.7384C28.4197 40.3782 31.5335 43.6158 34.7971 43.6158H34.8574C38.121 43.6158 41.2348 40.3782 43.7495 37.7384C48.6292 32.7134 53.6587 27.857 58.6591 23.0419C59.7366 21.9765 60.7536 20.7425 61.65 19.3367ZM61.65 6.81238C61.65 11.583 59.1643 15.886 56.5311 18.4844C51.8615 23.0832 47.1606 27.6852 42.5201 32.3286C40.5731 34.2464 37.2805 38.1646 34.8552 38.1646H34.7948C32.3695 38.1646 29.0769 34.2464 27.1299 32.3286C22.4894 27.6852 17.7885 23.0864 13.1502 18.4844C11.0244 16.4394 8 11.6275 8 7.7506C8 3.57475 9.58708 0 12.7903 0L56.8575 0C59.4616 0 61.6478 3.06589 61.6478 6.81556L61.65 6.81238Z" fill="#FF8906"/>
</g>
<path d="M32 0V72" stroke="#858C94" stroke-width="3"/>
</svg>
