<svg width="65" height="69" viewBox="0 0 65 69" fill="none" xmlns="http://www.w3.org/2000/svg">
<mask id="mask0_108_45" style="mask-type:alpha" maskUnits="userSpaceOnUse" x="0" y="0" width="30" height="69">
<rect width="30" height="69" fill="#D9D9D9"/>
</mask>
<g mask="url(#mask0_108_45)">
<path fill-rule="evenodd" clip-rule="evenodd" d="M28.504 0.000159031C13.3564 -0.0448417 9.54374 11.7389 9.55673 18.7021C9.58484 33.7167 17.2958 45.2125 28.687 63.9499C39.8155 45.0118 47.3119 33.7462 47.3119 18.758C47.3119 11.3592 43.6515 0.0451597 28.504 0.000159031V0.000159031ZM28.321 9.48171C33.5302 9.48106 37.7535 13.6899 37.754 18.8824C37.7535 24.0749 33.5302 28.2838 28.321 28.2831C23.1126 28.2826 18.8905 24.0741 18.89 18.8824C18.8905 13.6908 23.1126 9.48221 28.321 9.48171Z" fill="#FF8906"/>
<path d="M39.6968 54.3022C45.2403 55.0015 49.7377 56.1957 52.4424 57.6864C55.147 59.1771 55.8962 60.8746 54.5654 62.4971C53.2347 64.1196 49.9042 65.5694 45.1268 66.6059C40.3494 67.6424 34.4126 68.2031 28.3023 68.195C22.192 68.1869 16.2756 67.6104 11.5357 66.5613C6.79581 65.5121 3.51751 64.0535 2.24511 62.4275C0.972716 60.8016 1.7828 59.1061 4.54086 57.6227C7.29893 56.1393 11.839 54.9571 17.4073 54.2725" stroke="#FF8906" stroke-width="1.61804" stroke-linecap="round"/>
</g>
<mask id="mask1_108_45" style="mask-type:alpha" maskUnits="userSpaceOnUse" x="34" y="5" width="31" height="59">
<rect x="34" y="5" width="31" height="59" fill="#D9D9D9"/>
</mask>
<g mask="url(#mask1_108_45)">
<path d="M64.65 23.3367V57.1569C64.65 60.9066 62.4952 63.9725 59.8597 63.9725H15.7925C13.1571 63.9725 11.0022 60.9066 11.0022 57.1569L11.0022 23.3367C11.9008 24.7425 12.9179 25.9765 14.0266 27.0419C18.9958 31.8538 24.0252 36.6689 28.9049 41.7384C31.4197 44.3782 34.5335 47.6158 37.7971 47.6158H37.8574C41.121 47.6158 44.2348 44.3782 46.7495 41.7384C51.6292 36.7134 56.6587 31.857 61.6591 27.0419C62.7366 25.9765 63.7536 24.7425 64.65 23.3367ZM64.65 10.8124C64.65 15.583 62.1643 19.886 59.5311 22.4844C54.8615 27.0832 50.1606 31.6852 45.5201 36.3286C43.5731 38.2464 40.2805 42.1646 37.8552 42.1646H37.7948C35.3695 42.1646 32.0769 38.2464 30.1299 36.3286C25.4894 31.6852 20.7885 27.0864 16.1502 22.4844C14.0244 20.4394 11 15.6275 11 11.7506C11 7.57475 12.5871 4 15.7903 4L59.8575 4C62.4616 4 64.6478 7.06589 64.6478 10.8156L64.65 10.8124Z" fill="#FF8906"/>
</g>
<path d="M32 0V72" stroke="#858C94" stroke-width="3"/>
</svg>
