<svg width="100" height="100" viewBox="0 0 100 100" fill="none" xmlns="http://www.w3.org/2000/svg">
<path d="M33.6914 3.69141C31.9727 4.47266 31.6406 5.35156 31.6406 9.14062C31.6406 12.6367 31.5039 13.0078 29.375 14.8828C28.6133 15.5664 27.1875 17.0117 26.1914 18.1055C25.2149 19.1992 24.1602 20.2734 23.8672 20.4688C22.3047 21.582 19.7656 22.4414 18.0664 22.4609C17.0703 22.4609 15.5078 23.2031 14.707 24.043C13.5156 25.293 13.3984 25.8594 13.3203 30.2148C13.2422 34.6094 13.3984 35.8008 14.2188 37.0117C15.1172 38.3008 16.2305 38.8477 18.5742 39.1602C22.2852 39.6484 23.4766 40.3516 26.543 43.8281C28.457 45.9961 30.293 47.6562 32.3242 49.0234C33.7109 49.9609 33.7891 50.0977 33.75 51.6602C33.6914 53.2227 34.082 54.2578 34.9414 54.8633C35.6055 55.332 39.0039 56.4453 39.7461 56.4453C40.4883 56.4453 41.6602 55.8203 43.1055 54.6875L44.1992 53.8086L45.6836 53.9062C48.3789 54.082 53.7891 53.9844 55.1758 53.75C55.9375 53.6133 57.4414 53.2812 58.5352 53.0078C60.8789 52.4219 60.7422 52.3828 63.3399 54.4531C66.1524 56.7188 66.9727 56.7773 69.8438 54.8633C73.2031 52.6562 73.457 52.0117 72.4414 48.3789C71.6992 45.7227 71.6406 45.957 73.6328 43.5547C76.0742 40.625 77.832 36.3867 78.2227 32.4805C78.3594 31.1328 78.3984 31.0352 79.1992 30.293C79.9609 29.5898 81.0547 29.1016 81.875 29.1016C82.4609 29.1016 83.2227 28.2812 83.2422 27.5977C83.3008 25.7422 81.1914 25.2734 78.6914 26.5625L77.9883 26.9141L77.4609 24.8438C75.1172 15.4883 66.9336 8.55469 57.0899 7.59766C54.4141 7.34375 53.2617 7.53906 52.4219 8.41797C51.9141 8.94531 51.8555 9.16016 51.7578 10.7031L51.6602 12.4023H50H48.3399L48.2422 10.7031C48.1445 9.17969 48.0859 8.94531 47.5781 8.41797C46.8945 7.71484 45.8008 7.42188 43.7891 7.42188C42.3242 7.42188 42.168 7.38281 41.2891 6.73828C38.0664 4.45312 36.0156 3.32031 35.0977 3.32031C34.7461 3.32031 34.1211 3.49609 33.6914 3.69141ZM36.3672 7.44141C36.9336 7.77344 37.9883 8.47656 38.6914 9.00391C40.625 10.4297 41.6016 10.8008 43.3789 10.8008L44.8633 10.7812L44.9805 12.1094C45.2149 15 46.3281 15.8203 50 15.8203C53.6914 15.8203 54.7852 15 55.0195 12.0898L55.1367 10.7422L56.2305 10.8594C58.3789 11.0547 59.8047 11.3477 61.4453 11.9141C67.8125 14.082 72.5781 19.2578 74.375 25.957C75.0391 28.4961 75.0781 32.4805 74.4531 34.8633C73.8281 37.1484 72.3047 40.0391 70.6641 41.9922C68.4961 44.5703 68.2617 45.5273 69.0234 48.4375C69.2774 49.4531 69.5703 50.4492 69.6289 50.625C69.7266 50.8594 69.3945 51.1914 68.2813 51.9531L66.7969 52.9492L64.8047 51.3672C61.8164 49.043 61.0742 48.8867 57.3242 49.8438C53.7891 50.7422 50.5078 50.957 46.6211 50.5664C43.9063 50.293 42.9688 50.5469 41.0547 52.0508L39.6875 53.125L38.4375 52.6562L37.207 52.1875L37.1094 50.7422C36.9531 48.6133 36.4063 47.8125 33.9258 46.0547C31.8359 44.5898 30.6641 43.4766 27.9883 40.5078C25.4492 37.6758 23.0469 36.3672 19.6289 35.9375C18.6524 35.8203 17.6758 35.6445 17.4414 35.5469C16.7188 35.2539 16.5625 34.2188 16.6406 30.3125L16.6992 26.7188L17.2461 26.25C17.5977 25.957 18.0469 25.7812 18.457 25.7812C19.4922 25.7812 21.7578 25.2539 23.0859 24.6875C25.3516 23.75 26.7188 22.6172 29.5117 19.4531C30.0781 18.8086 31.2109 17.6758 32.0703 16.9336C33.2422 15.8789 33.75 15.2734 34.2383 14.2773C34.8438 13.0273 34.8633 12.9297 34.9219 9.92188C34.9609 8.22266 35.0781 6.83594 35.1563 6.83594C35.2539 6.83594 35.8008 7.10938 36.3672 7.44141Z" fill="black"/>
<path d="M33.4961 21.9141C31.6992 22.5781 30.0781 24.4141 30.0781 25.7812C30.0781 27.0703 31.4062 27.793 32.5977 27.1484C32.832 27.0312 33.0078 26.875 33.0078 26.7773C33.0078 26.6992 33.3203 26.2695 33.7109 25.8203C34.8242 24.5117 35.6836 24.7266 36.9727 26.6406C37.4805 27.3828 38.1445 27.5976 38.9453 27.2656C39.7852 26.9141 40.1562 26.0547 39.8633 25.1367C39.5508 24.2187 38.4375 22.9492 37.3828 22.3437C36.3867 21.7578 34.4727 21.543 33.4961 21.9141Z" fill="black"/>
<path d="M2.77342 52.2656C2.22655 52.5391 1.50389 53.0859 1.17186 53.4766C-0.0586067 54.9805 -0.0195442 54.1406 0.0390495 74.5312C0.0976433 95.293 -0.0195443 93.5547 1.52342 95.1758C2.81249 96.5234 3.6328 96.6797 9.06249 96.6797C14.3164 96.6797 15.1367 96.543 16.4258 95.5273L17.168 94.9219H38.9062C62.6367 94.9219 61.7383 94.9609 64.2969 93.7891C66.2305 92.8906 96.8555 74.1602 97.9297 73.2227C99.2969 72.0117 99.9023 70.6445 99.9023 68.7305C99.9023 67.4219 99.8242 67.0898 99.2187 65.8984C98.1055 63.7305 96.0937 62.5 93.6719 62.5C92.9101 62.5 89.1211 63.6914 76.5625 67.8711C63.6523 72.168 60.2344 73.2422 59.414 73.2422C58.3984 73.2422 58.3984 73.2422 58.5351 72.6953C58.6328 72.4023 58.6914 71.3672 58.6719 70.4102C58.6719 68.8477 58.5937 68.5156 58.0078 67.3047C57.2265 65.6641 55.4101 63.75 53.9258 62.9883C51.6601 61.8555 51.7187 61.8555 44.8242 61.7188C36.5625 61.543 35.8789 61.3867 31.7773 58.6133C27.7734 55.8984 25.8789 55.2734 21.289 55.1367L18.0664 55.0391L17.4805 54.043C17.0898 53.3789 16.5625 52.832 15.9375 52.4414L14.9805 51.8555L9.39452 51.7969L3.80858 51.7383L2.77342 52.2656ZM14.414 55.4688C14.6289 55.6836 14.8828 56.1523 14.9414 56.4844C15 56.8359 15.0195 65.0586 15 74.7461L14.9414 92.3633L14.4922 92.8125C14.0625 93.2617 13.9844 93.2617 9.17967 93.2617C4.37499 93.2617 4.29686 93.2617 3.86717 92.8125L3.41796 92.3633L3.35936 74.5508C3.33983 64.7656 3.35936 56.543 3.41796 56.2891C3.47655 56.0547 3.69139 55.6836 3.90624 55.4688C4.27733 55.0977 4.5703 55.0781 9.14061 55.0781C13.7109 55.0781 14.0039 55.0977 14.414 55.4688ZM24.2578 58.7109C26.1523 59.1406 27.7344 59.8828 29.5898 61.2109C31.6211 62.6562 34.2578 63.9648 36.2305 64.4922C37.6172 64.8633 38.5156 64.9219 44.3359 65.0195L50.8789 65.1367L52.1094 65.8008C53.457 66.543 54.4531 67.5586 55.0976 68.9062C55.4297 69.5898 55.5078 70 55.4101 70.957C55.3711 71.6211 55.2148 72.4023 55.0781 72.6758L54.8437 73.1836L48.5547 73.3008C40.8398 73.4375 39.4922 73.7109 35.8594 75.8203C33.418 77.2461 32.8711 78.1836 33.8086 79.375C34.4336 80.1758 35.2539 80.0586 37.2265 78.8867C38.1445 78.3398 39.5117 77.6562 40.293 77.3633L41.6992 76.8555L51.2695 76.7578L60.8398 76.6602L77.0508 71.2305C85.9765 68.2617 93.5156 65.8203 93.8086 65.8203C95.1953 65.8203 96.6797 67.2852 96.6797 68.6523C96.6797 69.3555 96.2305 70.332 95.6836 70.8203C94.9219 71.5039 63.6719 90.4492 62.4023 90.9961L61.2305 91.5039L39.8047 91.5625L18.3594 91.6016V75V58.3984H20.625C21.9922 58.3984 23.418 58.5156 24.2578 58.7109Z" fill="black"/>
</svg>
