<svg width="120" height="119" viewBox="0 0 120 119" fill="none" xmlns="http://www.w3.org/2000/svg">
<path d="M13.188 0.395989C6.438 0.395989 0.946 5.89599 0.946 12.669V106.677C0.946 113.45 6.438 118.958 13.188 118.958H107.211C113.977 118.958 119.469 113.45 119.469 106.677V12.668C119.469 5.89499 113.977 0.394989 107.211 0.394989H13.191L13.188 0.395989Z" fill="white"/>
<path d="M80.82 35.107L71.789 28.076V13.591C68.101 15.45 61.742 21.529 63.406 30.029C63.578 32.537 65.539 38.982 64.703 42.498C63.578 47.186 63.164 47.287 56.422 55.686L22.633 96.888C20.367 99.45 20.61 103.38 23.172 105.654C25.734 107.928 29.641 107.677 31.914 105.115L74.203 53.17C76.867 49.85 81.773 46.92 86.023 45.772C93.32 43.553 98.711 36.788 98.711 28.756C98.711 22.287 94.977 16.162 90.07 13.592L90.047 27.85L80.823 35.104L80.82 35.107Z" fill="black"/>
</svg>
