<svg width="100" height="100" viewBox="0 0 100 100" fill="none" xmlns="http://www.w3.org/2000/svg">
<path d="M44.4141 0.234424C43.7891 0.527392 43.5547 1.23052 43.5547 2.81255V4.23833L42.7344 4.4727C42.2656 4.60942 41.25 5.01958 40.4492 5.39067L39.0039 6.05474L37.5781 4.68755C36.3476 3.47661 36.0937 3.32036 35.4297 3.32036C34.7461 3.32036 34.4922 3.51567 31.2891 6.67974C29.4336 8.5352 27.8125 10.2344 27.6953 10.4493C27.207 11.3282 27.4609 11.9141 28.9062 13.379L30.3125 14.7852L29.8633 15.6446C29.6289 16.1133 29.1992 17.1094 28.9062 17.8711L28.3984 19.2383L27.1484 19.2969C24.5898 19.3946 24.2187 19.7071 24.2187 21.8165C24.2187 23.2422 24.1992 23.2618 23.2617 24.4727C19.5703 29.1993 17.2266 34.8829 16.3867 41.1524C16.1719 42.8907 16.25 48.6915 16.5234 50.0977C16.6211 50.625 16.543 50.7227 15.918 51.0547C14.5117 51.8165 13.2226 53.8477 12.9687 55.6836C12.6953 57.7344 13.7891 60.254 15.5273 61.5626C18.75 64.004 23.3398 62.8711 25.1367 59.1993C25.6055 58.2618 25.6836 57.8711 25.6836 56.4454C25.6836 55.1758 25.5859 54.5704 25.2734 53.8868C24.4336 52.0704 22.9101 50.8008 20.957 50.293C20.3516 50.1368 19.8242 49.9805 19.8047 49.9415C19.7656 49.9024 19.6289 48.75 19.4922 47.3829C19.1406 43.711 19.6094 39.7852 20.8398 35.8399C21.3281 34.2774 23.3203 29.9415 23.9062 29.1993C24.1797 28.8282 24.1992 28.8868 24.2187 30.0001C24.2187 31.836 24.5312 32.1094 26.6797 32.2266L28.3984 32.3243L28.9062 33.6915C29.1992 34.4336 29.6289 35.4493 29.8633 35.918L30.3125 36.7774L29.0234 38.0665C27.5391 39.5704 27.2851 40.0977 27.6367 40.918C27.9687 41.6797 34.3164 47.9688 35 48.2227C35.7617 48.5157 36.0547 48.3594 37.6172 46.836L39.0039 45.4688L40.0586 45.9961C40.625 46.2891 41.6406 46.7383 42.2851 46.9727L43.457 47.4219L43.5547 49.1211C43.7109 51.6797 43.3789 51.5625 50 51.5625C56.6211 51.5625 56.2891 51.6797 56.4453 49.1211L56.543 47.4219L57.7148 46.9727C58.3594 46.7383 59.375 46.2891 59.9414 45.9961L60.9961 45.4688L62.3828 46.836C63.9453 48.379 64.3945 48.5938 65.1758 48.1641C65.9375 47.754 72.207 41.4063 72.4219 40.8204C72.6953 40.0782 72.3828 39.4922 70.9766 38.0665L69.6875 36.7774L70.1367 35.918C70.3711 35.4493 70.8203 34.4336 71.0937 33.6915L71.6211 32.3243L73.3398 32.2266C75.8984 32.0704 75.7812 32.4024 75.7812 25.8008C75.7617 21.8751 75.7031 20.3321 75.5273 20.0977C75.0976 19.5313 74.4531 19.336 72.9883 19.336H71.5625L71.2109 18.2032C71.0156 17.5977 70.5859 16.5625 70.2734 15.9375L69.6875 14.7852L71.0937 13.379C72.5391 11.9141 72.793 11.3282 72.3047 10.4493C72.1875 10.2344 70.5664 8.5352 68.6914 6.67974C65.5078 3.5352 65.2344 3.32036 64.5508 3.32036C63.9258 3.32036 63.6523 3.49614 62.4219 4.68755L60.9961 6.05474L59.5508 5.39067C58.75 5.01958 57.7344 4.60942 57.2851 4.4727L56.4453 4.23833V2.81255C56.4453 1.19145 56.2109 0.527392 55.5273 0.214892C54.9023 -0.0585451 45 -0.0585451 44.4141 0.234424ZM53.3203 4.64849C53.3203 6.44536 53.5351 6.69927 55.5859 7.32427C56.5234 7.61724 58.1055 8.2813 59.1016 8.80864C60.1172 9.33599 61.1328 9.76567 61.3476 9.76567C61.582 9.76567 62.3242 9.2188 63.1055 8.45708L64.4726 7.14849L66.5625 9.23833L68.6523 11.3282L67.4414 12.5391C66.7969 13.2227 66.1914 13.9649 66.1133 14.2188C66.0156 14.5704 66.2305 15.1758 66.9531 16.5625C67.5 17.5977 68.1641 19.2188 68.457 20.1563C68.75 21.0938 69.1406 21.9922 69.3555 22.1875C69.6094 22.4219 70.1758 22.5586 71.1914 22.6172L72.6562 22.7149L72.6172 25.8594L72.5586 29.004L71.0547 29.1016C70.0781 29.1602 69.4531 29.2969 69.2578 29.4922C69.1016 29.6485 68.7891 30.4102 68.5742 31.1915C68.3398 31.9727 67.6758 33.5743 67.0703 34.7461C66.3086 36.2891 66.0351 37.0313 66.1133 37.3633C66.1914 37.6172 66.7578 38.3399 67.4023 38.9844C68.0273 39.6094 68.5547 40.2149 68.5547 40.3321C68.5547 40.4297 67.6562 41.4258 66.5625 42.5196L64.5703 44.5118L63.2617 43.2618C61.6601 41.6993 61.3867 41.6797 59.043 42.8516C58.1055 43.3399 56.6016 43.9649 55.7226 44.2383C53.457 44.9805 53.4375 45 53.3203 46.8165L53.2226 48.3399H50H46.7773L46.6797 46.8165C46.5625 45.0196 46.4844 44.9219 44.4922 44.3165C43.7695 44.1016 42.3047 43.5157 41.2695 42.9883C40.2148 42.4805 39.1992 41.9922 39.0039 41.9141C38.4961 41.7383 37.7539 42.2071 36.5234 43.4375L35.4687 44.5313L33.457 42.5391C32.3437 41.4258 31.4453 40.4493 31.4453 40.3321C31.4453 40.2149 31.9726 39.6094 32.5976 38.9844C33.2422 38.3399 33.8086 37.6172 33.8867 37.3438C33.9648 36.9922 33.75 36.3672 33.0469 34.9805C32.5195 33.9454 31.8359 32.3633 31.543 31.4454C31.25 30.5274 30.8789 29.6485 30.7226 29.4922C30.5469 29.2969 29.9219 29.1602 28.9453 29.1016L27.4414 29.004L27.3828 25.8594L27.3437 22.7149L28.8086 22.6172C29.8242 22.5586 30.3906 22.4219 30.6445 22.1875C30.8594 21.9922 31.25 21.0938 31.543 20.1563C31.8359 19.2188 32.5 17.5977 33.0469 16.5625C33.7695 15.1758 33.9844 14.5704 33.8867 14.2188C33.8086 13.9649 33.2031 13.2227 32.5586 12.5391L31.3476 11.3282L33.457 9.23833L35.5469 7.12895L36.7578 8.33989C37.4414 9.00395 38.2031 9.60942 38.4766 9.66802C38.8476 9.76567 39.4726 9.5313 40.8594 8.80864C41.875 8.2813 43.4766 7.61724 44.4141 7.32427C46.4648 6.69927 46.6797 6.44536 46.6797 4.64849V3.32036H50H53.3203V4.64849ZM21.1523 53.8086C22.7344 54.9024 23.0078 57.168 21.6992 58.6719C20.7812 59.7266 18.8476 59.9415 17.5976 59.1211C15.6641 57.8321 15.7812 54.6485 17.8125 53.6524C18.8086 53.1446 20.2734 53.2227 21.1523 53.8086Z" fill="black"/>
<path d="M46.8945 9.96094C39.3164 11.5625 33.9844 18.0469 33.9648 25.6836C33.9453 30.3711 35.6055 34.2773 38.9453 37.4414C45.1953 43.3984 54.8047 43.3984 61.0547 37.4414C64.3945 34.2773 66.0547 30.3711 66.0351 25.6836C66.0156 18.5938 61.5234 12.5781 54.5898 10.3516C53.5156 10 52.6562 9.90235 50.4883 9.84375C48.9844 9.80469 47.3633 9.86328 46.8945 9.96094ZM53.5156 13.3984C59.2969 15.1367 63.164 20.5664 62.832 26.4648C62.5195 31.8164 59.2187 36.1914 54.0625 38.0469C52.793 38.5156 52.3633 38.5547 50 38.5547C47.6367 38.5547 47.207 38.5156 45.9375 38.0469C40.7812 36.1914 37.4805 31.8164 37.168 26.4648C36.7969 19.9414 41.6211 14.0234 48.1445 13.0078C49.2383 12.8516 52.4414 13.0664 53.5156 13.3984Z" fill="black"/>
<path d="M48.4375 16.1914V17.9297L47.5586 18.4375C45.8203 19.4727 44.9023 21.543 45.3125 23.5156C45.7422 25.5859 47.2852 26.9727 49.5312 27.3438C50.8789 27.5586 51.5625 28.125 51.5625 28.9844C51.543 30.3516 50.8398 30.6641 47.6758 30.6641H45.1172V32.2266V33.7695L46.7383 33.8281L48.3398 33.8867L48.3984 35.4883L48.457 37.1094H50H51.5625V35.3516V33.5938L52.3242 33.2031C54.0625 32.3242 55.0977 30.1367 54.707 28.1836C54.3164 26.2109 52.7344 24.6094 50.8789 24.3164C49.4336 24.082 49.2383 24.0234 48.8281 23.5938C48.2812 22.9883 48.3203 22.0508 48.9453 21.4648C49.4141 21.0156 49.5898 20.9961 52.168 20.9375L54.8828 20.8594V19.3164V17.7734H53.2227H51.5625V16.1133V14.4531H50H48.4375V16.1914Z" fill="black"/>
<path d="M80.918 32.4219C79.0039 32.8321 77.2656 34.2383 76.4062 36.0938C76.0156 36.9532 75.8984 37.5196 75.8984 38.6719C75.8789 39.961 75.957 40.3125 76.5234 41.4453C77.2461 42.9102 78.2812 43.9258 79.7461 44.5899L80.7031 45.0196L80.5664 46.7774C80.1758 52.3828 78.4375 57.6563 75.5078 62.0508C73.8476 64.5508 73.9258 64.4922 72.0898 64.5703C63.9258 64.9219 57.4609 70.1367 55.3516 78.0274C54.7851 80.0977 54.8437 84.7071 55.4297 86.7774C57.7734 94.9414 65.2344 100.391 73.4375 99.9219C80.0586 99.5508 85.5859 95.8985 88.4766 89.9414C89.9219 87.0117 90.1367 86.0157 90.1367 82.3242C90.1367 78.8672 89.9414 77.8321 88.8086 75.1953C86.8945 70.7813 82.7539 66.9532 78.3594 65.5274C77.6953 65.3125 77.3828 65.1172 77.4805 64.9805C77.5586 64.8438 78.0273 64.1016 78.5351 63.3203C81.5234 58.75 83.457 52.7149 83.7305 47.2461L83.8476 44.9805L84.8828 44.5313C86.25 43.9844 87.7148 42.3828 88.2812 40.8594C89.1406 38.5938 88.457 35.6641 86.6601 34.043C85.1562 32.6953 82.8125 32.0313 80.918 32.4219ZM83.7109 35.8594C85.625 36.7774 86.0156 39.4141 84.4922 40.9375C82.9492 42.4805 80.332 42.0899 79.4141 40.1563C78.1055 37.4024 80.957 34.5508 83.7109 35.8594ZM75.5469 68.086C77.4219 68.4571 80.1953 69.7852 81.7383 71.0352C84.0039 72.8711 85.7226 75.5078 86.5625 78.418C87.1875 80.6446 87.1875 84.0625 86.543 86.1328C85.7422 88.7305 84.668 90.5469 82.8125 92.3828C80.9375 94.2578 79.3359 95.2735 77.0508 96.0352C75.625 96.5235 75.2148 96.5625 72.5586 96.5625C69.9219 96.5625 69.4726 96.5235 68.1055 96.0547C61.5039 93.8282 57.3633 87.3438 58.2031 80.5664C58.6914 76.6407 60.6641 73.1641 63.7305 70.8399C67.2656 68.1446 71.2695 67.2071 75.5469 68.086Z" fill="black"/>
<path d="M71.0351 71.0352C70.957 71.0938 70.8984 71.9336 70.8984 72.8711C70.8984 74.4336 70.8593 74.5898 70.4883 74.707C69.7656 74.9414 68.6914 76.0547 68.2422 77.0508C67.3633 78.9258 67.7148 80.8008 69.2383 82.3633C70.2148 83.3594 70.7617 83.6133 72.5 83.8867C73.4375 84.0234 73.9843 84.5117 74.1406 85.293C74.2383 85.8203 74.1601 86.0156 73.6718 86.5234L73.0859 87.1094H70.4297H67.7734V88.6719V90.2344H69.3359H70.8984V91.8945V93.5547H72.5586H74.2187V91.8359V90.1172L75.2343 89.4336C77.6758 87.793 78.1054 84.3359 76.1133 82.2656C75.2929 81.4062 74.2383 80.8789 72.9101 80.6641C71.25 80.3906 70.6836 79.6094 71.2109 78.3594C71.5429 77.5586 72.3242 77.3438 75.0195 77.3438H77.3437V75.7812V74.2188H75.7812H74.2187V72.5586V70.8984H72.6953C71.8554 70.8984 71.0937 70.957 71.0351 71.0352Z" fill="black"/>
<path d="M43.5547 59.668V64.4531H45.1172H46.6797V59.668V54.8828H45.1172H43.5547V59.668Z" fill="black"/>
<path d="M53.3203 62.8906V67.7734H54.8828H56.4453V62.8906V58.0078H54.8828H53.3203V62.8906Z" fill="black"/>
<path d="M25.4883 64.6484C19.4727 65.332 14.2383 69.0234 11.4453 74.5508C11.1719 75.0977 10.7031 76.3281 10.4102 77.2852C9.9414 78.8477 9.88281 79.2969 9.88281 82.2266C9.86328 86.0156 10.0586 86.9531 11.5234 89.9414C14.4141 95.8984 19.9414 99.5508 26.5625 99.9219C33.6523 100.332 40.6055 96.0937 43.5742 89.5508C44.707 87.0312 45 85.5469 45.0195 82.3242C45.0195 79.082 44.7656 77.7734 43.6914 75.293C40.5469 68.0859 33.1641 63.7695 25.4883 64.6484ZM31.543 68.3594C33.418 68.9648 34.6289 69.5898 36.2695 70.8398C39.3359 73.1641 41.3086 76.6406 41.7969 80.5664C42.6367 87.3437 38.4961 93.8281 31.8945 96.0547C30.5273 96.5234 30.0781 96.5625 27.4414 96.5625C24.7852 96.5625 24.375 96.5234 22.9492 96.0352C20.6641 95.2734 19.0625 94.2578 17.1875 92.3828C15.332 90.5469 14.2578 88.7305 13.457 86.1328C12.8125 84.0625 12.8125 80.6445 13.4375 78.418C14.2773 75.5078 15.9961 72.8711 18.2617 71.0352C19.7461 69.8437 22.5391 68.4766 24.3164 68.0859C26.2695 67.6562 29.7266 67.793 31.543 68.3594Z" fill="black"/>
<path d="M20.1369 71.1308C20.0185 71.2054 19.8374 71.4014 19.7468 71.5694C19.6075 71.8308 18.9388 73.8187 18.2631 75.9654L18.1586 76.3201H23.1739H28.1823L28.2937 75.8254C28.4539 75.0974 28.8649 74.2201 29.3246 73.6414C30.7596 71.8681 32.8354 71.8494 34.2633 73.6134C34.7509 74.2107 35.1689 75.0787 35.3291 75.8254L35.4405 76.3201H35.8515C36.0814 76.3201 36.2695 76.2827 36.2695 76.2454C36.2695 76.0867 34.8624 71.7934 34.7231 71.5414C34.4305 70.9814 34.744 71.0001 27.2349 71.0001C21.5927 71.0094 20.311 71.0281 20.1369 71.1308Z" fill="black"/>
<path d="M31.0313 74.1827C30.5437 74.4161 30.0004 75.0507 29.7148 75.7041C29.6033 75.9654 29.5128 76.2081 29.5128 76.2454C29.5128 76.2921 30.5506 76.3201 31.8114 76.3201C33.0792 76.3201 34.1101 76.3014 34.1101 76.2734C34.1101 76.2454 34.0335 76.0214 33.9429 75.7787C33.734 75.2187 33.1697 74.5094 32.7379 74.2481C32.2503 73.9681 31.5328 73.9401 31.0313 74.1827Z" fill="black"/>
<path d="M16.9257 78.6628C16.5565 79.0734 16.3754 79.3534 16.2292 79.7548L16.0341 80.2868V83.4601C16.0341 86.6054 16.0341 86.6334 16.1943 86.9787C16.2849 87.1747 16.473 87.3987 16.6541 87.5107C16.9466 87.7067 16.9745 87.7067 27.0678 87.7067C38.3383 87.7067 37.4954 87.7534 37.8159 87.0627C37.9761 86.7267 37.9761 86.6987 37.9761 83.3668C37.9761 80.7161 37.9552 79.9321 37.8786 79.6334C37.8228 79.4281 37.593 78.9988 37.3631 78.6721L36.9452 78.0934H27.1862L17.4273 78.1028L16.9257 78.6628ZM21.9132 80.7161C22.3032 80.9028 22.3381 81.1268 22.3381 83.3108C22.3381 85.3547 22.3102 85.6067 22.0386 85.8494C21.8435 86.0174 18.1238 86.0921 17.678 85.9334C17.1695 85.7561 17.1486 85.6347 17.1486 83.2641C17.1486 81.3228 17.1556 81.1828 17.2879 80.9868C17.3646 80.8748 17.4899 80.7441 17.5666 80.6974C17.7825 80.5854 21.6485 80.5948 21.9132 80.7161ZM36.6665 80.9214L36.8616 81.1734V83.3201V85.4667L36.6665 85.7187L36.4784 85.9801H34.2843H32.0901L31.902 85.7187L31.7069 85.4667L31.686 83.5254C31.6721 82.2748 31.693 81.4721 31.7418 81.2388C31.8741 80.6321 31.9647 80.6134 34.3678 80.6414L36.4784 80.6601L36.6665 80.9214ZM30.0421 81.5748C30.2232 81.8641 30.2581 82.1908 30.1257 82.5081C29.9586 82.9468 29.9725 82.9374 27.0678 82.9468H24.3094L24.1213 82.7041C23.8218 82.2934 23.9193 81.5748 24.3163 81.3601C24.393 81.3134 25.6816 81.2854 27.1653 81.2948L29.875 81.3134L30.0421 81.5748ZM30.0073 84.3374C30.1466 84.5241 30.2093 84.7014 30.2093 84.9067C30.2093 85.1121 30.1466 85.2894 30.0073 85.4761L29.8053 85.7467H27.0539H24.3094L24.1213 85.5041C23.8636 85.1587 23.8775 84.7014 24.1422 84.3374L24.3442 84.0667H27.0748H29.8053L30.0073 84.3374Z" fill="black"/>
<path d="M18.4373 83.2734V84.16H19.7607H21.0842V83.2734V82.3867H19.7607H18.4373V83.2734Z" fill="black"/>
<path d="M32.9259 83.2734V84.16H34.2494H35.5729V83.2734V82.3867H34.2494H32.9259V83.2734Z" fill="black"/>
<path d="M16.0132 89.984C16.0411 90.8146 16.0689 91.0106 16.2082 91.2906C16.5147 91.8786 16.6819 91.9533 17.7476 91.9533C18.8064 91.9533 18.9736 91.888 19.2104 91.3746C19.3289 91.1226 19.3567 90.8893 19.3637 90.2453L19.3776 89.4333L17.9845 89.3867C16.863 89.3493 16.5356 89.312 16.3197 89.172C16.1734 89.088 16.0341 89.0133 16.0132 89.0133C15.9993 89.0133 15.9923 89.452 16.0132 89.984Z" fill="black"/>
<path d="M37.7322 89.1813C37.5372 89.3027 37.1819 89.3493 36.0256 89.3867L34.5628 89.4333L34.5419 89.9187C34.5002 90.8613 34.744 91.5147 35.2525 91.8227C35.4754 91.9533 35.7122 92 36.2764 92C37.2168 92 37.4118 91.944 37.6626 91.608C37.9342 91.2533 38.0178 90.768 37.9969 89.816L37.976 89.032L37.7322 89.1813Z" fill="black"/>
</svg>
